<?xml version="1.0" encoding="UTF-8" standalone="no"?>
<!-- Created with Inkscape (http://www.inkscape.org/) -->

<svg
   xmlns:dc="http://purl.org/dc/elements/1.1/"
   xmlns:cc="http://creativecommons.org/ns#"
   xmlns:rdf="http://www.w3.org/1999/02/22-rdf-syntax-ns#"
   xmlns:svg="http://www.w3.org/2000/svg"
   xmlns="http://www.w3.org/2000/svg"
   xmlns:sodipodi="http://sodipodi.sourceforge.net/DTD/sodipodi-0.dtd"
   xmlns:inkscape="http://www.inkscape.org/namespaces/inkscape"
   id="svg3114"
   version="1.1"
   inkscape:version="0.48.3.1 r9886"
   width="265"
   height="265"
   sodipodi:docname="drawing.svg">
  <metadata
     id="metadata3120">
    <rdf:RDF>
      <cc:Work
         rdf:about="">
        <dc:format>image/svg+xml</dc:format>
        <dc:type
           rdf:resource="http://purl.org/dc/dcmitype/StillImage" />
        <dc:title></dc:title>
      </cc:Work>
    </rdf:RDF>
  </metadata>
  <defs
     id="defs3118" />
  <sodipodi:namedview
     pagecolor="#ffffff"
     bordercolor="#666666"
     borderopacity="1"
     objecttolerance="10"
     gridtolerance="10"
     guidetolerance="10"
     inkscape:pageopacity="0"
     inkscape:pageshadow="2"
     inkscape:window-width="1280"
     inkscape:window-height="708"
     id="namedview3116"
     showgrid="false"
     inkscape:zoom="0.89056604"
     inkscape:cx="112.84958"
     inkscape:cy="132.5"
     inkscape:window-x="-4"
     inkscape:window-y="-4"
     inkscape:window-maximized="1"
     inkscape:current-layer="svg3114" />
  <path
     style="fill:#15242b;fill-opacity:1"
     d="m 116.94456,265.60376 -4.4713,-0.5998 0.2557,-5 c 0.1407,-2.75 0.4888,-6.1818 0.7736,-7.6263 0.5422,-2.7495 -1.6043,-5.8737 -4.0356,-5.8737 -2.0653,0 -3.3582,2.1649 -5.5705,9.3275 -1.194,3.8658 -2.6221,6.6725 -3.395,6.6725 -1.1146,0 -4.820698,-1.1375 -11.257998,-3.4555 -0.8489,-0.3057 -0.5883,-2.5423 0.9442,-8.1048 2.0849,-7.5677 2.0878,-7.7036 0.1918,-9.09 -1.0587,-0.7741 -2.6086,-1.2793 -3.4442,-1.1227 -1.2181,0.2283 -6.4295,8.4973 -8.3651,13.273 -0.3523,0.8695 -13.6542,-5.2539 -13.6542,-6.2856 0,-0.2142 1.575,-3.2058 3.5,-6.648 3.9701,-7.0993 4.1083,-7.8152 1.9285,-9.9949 -2.5693,-2.5694 -3.9885,-1.878 -9.0824,4.4248 -2.6654,3.2979 -5.2252,5.9979 -5.6884,6 -0.9304,0 -3.7303,-2.0968 -9.232,-6.9273 l -3.6287,-3.1861 4.6015,-5.857 c 5.2279,-6.6543 5.8385,-9.6773 2.142,-10.605 -1.9328,-0.4851 -3.7402,0.389 -8.4414,4.0824 l -5.982,4.6997 -3.3086,-3.7543 c -6.5454,-7.4273 -6.5097,-7.2504 -2.1779,-10.783 8.5942,-7.0088 9.8724,-9.1733 6.8824,-11.6549 -1.9437,-1.6131 -4.8041,-0.8132 -11.4539,3.2031 l -5.4409,3.2861 -3.4043,-6.4438 c -3.8795,-7.3432 -4.0246,-7.0036 4.9621,-11.6153 5.2402,-2.6891 6.9057,-5.7877 4.4375,-8.2558 -1.456,-1.456 -2.2442,-1.4002 -9.2267,0.6541 -4.1992,1.2354 -7.7433,2.1145 -7.876,1.9535 -0.1327,-0.1609 -1.0424003,-2.7676 -2.0217003,-5.7926 -0.9792,-3.025 -1.9701,-6.0158 -2.2019,-6.6462 -0.2488,-0.6764 2.3723,-2.0489 6.3956003,-3.349 3.7495,-1.2116 7.6271,-3.1359 8.617,-4.2762 1.7358,-1.9995 1.732,-2.1412 -0.1051,-3.9783 -1.7132,-1.7132 -2.6707,-1.8158 -9.5125,-1.0196 l -7.6077003,0.8853 -0.4749,-2.558 c -0.2613,-1.4069 -0.7572,-5.1197 -1.1021,-8.2506 l -0.6271,-5.6925 3.3148,-0.5061 c 1.8231,-0.2784 5.3240003,-0.7244 7.7797003,-0.9911 10.3217,-1.1213 7.9156,-8.5918 -2.78,-8.6314 -2.0267003,-0.01 -4.7268003,-0.2927 -6.0002003,-0.6337 -2.2182,-0.594 -2.2864,-0.8975 -1.6269,-7.2363 0.3786,-3.639 0.8275,-6.8615 0.9975,-7.1612 0.1701,-0.2997 3.5992,-0.2434 7.6203003,0.1252 8.3182,0.7624 9.5026,0.5088 10.3689,-2.2207 0.9421,-2.9683 -0.9873,-4.4956 -8.6002,-6.8079 -3.9247003,-1.1921 -6.9443003,-2.6716 -6.9443003,-3.4024 0,-1.6873 3.0643,-10.923604 3.9552,-11.921704 0.3792003,-0.4248 3.7139003,0.1619 7.4105003,1.3036 8.0062,2.4729 10.6343,1.9848 10.6343,-1.9748 0,-2.46054 -0.8679,-3.26484 -7,-6.48714 -3.85,-2.0231 -7,-3.955 -7,-4.293 0,-0.5319 5.7699,-11.2302 6.5208,-12.0905 0.1508,-0.1728 3.5004,1.3105 7.4434,3.2962 7.7207,3.8881 11.0193,3.9479 11.0587,0.2006 0.015,-1.4246 -2.1345,-4.1284 -6.1888,-7.7848 l -6.2118,-5.6022 2.0613,-2.6206 c 1.1338,-1.4413 3.4889,-4.2464 5.2336,-6.2335 l 3.1721,-3.6129 5.5702,4.5857 c 10.7446,8.8455 15.5313,4.5955 6.8405,-6.0734 -2.475,-3.0384 -4.4776,-5.8205 -4.4503,-6.1826 0.057,-0.7591 9.3731,-8.4965 10.6194,-8.8202 0.457,-0.1187 3.0042,2.4566 5.6606,5.723 3.4661,4.2621 5.5076,5.9389 7.2309,5.9389 4.1712,0 4.1419,-3.9187 -0.086,-11.4783 -2.0377,-3.6438 -3.5407,-6.7534 -3.34,-6.9101 1.155,-0.9018 11.7102,-6.6116 12.2223,-6.6116 0.3376,0 1.9337,2.6144 3.5467,5.8098 3.4333,6.8013 5.2701,8.5871 7.9556,7.7347 2.9787,-0.9454 3.1849,-2.7943 1.0829,-9.7067 -1.06,-3.4858 -1.9307,-6.8182 -1.9349,-7.4052 0,-0.5871 2.5799,-1.8825 5.7424,-2.8787 3.1625,-0.9962001 6.2283,-1.9942001 6.812898,-2.2178001 0.5846,-0.2236 2.1302,2.9966001 3.4346,7.1559001 1.8802,5.9953 2.8398,7.68 4.6302,8.1294 4.1186,1.0337 4.6942,-0.2691 4.064,-9.1982 l -0.5848,-8.2878001 2.6965,-0.5054 c 1.4831,-0.278 5.225,-0.7835 8.3154,-1.1233 5.2661,-0.5791 5.6576,-0.4731 6.2363,1.6877 0.3397,1.2681 0.6237,3.9638 0.6312,5.9905001 0.04,10.6955 7.5101,13.1017 8.6314,2.78 0.2667,-2.4557 0.7135,-5.9604001 0.9927,-7.7882001 l 0.5077,-3.3233 6.6909,0.6964 c 3.68,0.383 6.9362,0.8354 7.2359,1.0055 0.2997,0.1701 0.2433,3.5992 -0.1253,7.6203001 -0.7624,8.3182 -0.5087,9.5026 2.2207,10.3689 2.9683,0.9421 4.4956,-0.9873 6.8079,-8.6002 1.1921,-3.9247 2.6716,-6.9443001 3.4024,-6.9443001 1.6459,0 10.9102,3.0536001 11.8834,3.9169001 0.4037,0.3582 -0.1922,3.9244 -1.3244,7.925 -2.1801,7.7037 -1.6829,10.1581 2.0578,10.1581 2.2464,0 4.2067,-2.3069 7.4354,-8.75 1.447,-2.8875 2.9244,-5.25 3.2831,-5.25 0.559,0 11.234,5.74 12.1295,6.5221 0.1735,0.1515 -1.0901,3.0599 -2.808,6.4632 -3.4728,6.8795 -3.674,11.276 -0.5432,11.8707 1.3956,0.2651 3.5964,-1.4517 7.6022,-5.9303 l 5.6379,-6.3034 2.6206,2.0613 c 1.4414,1.1338 4.2463,3.4888 6.2333,5.2334 3.9977,3.51 4.1652,2.7419 -2.2925,10.513 -1.9865,2.3906 -3.2657,5.0346 -3.2657,6.75 0,4.3872 3.9957,3.7416 11.0258,-1.7815 l 5.857,-4.6015 3.3086,3.7543 c 5.8248,6.6096 6.338,7.5843 4.6577,8.8454 -7.5062,5.6339 -10.8491,9.0864 -10.8491,11.2047 0,4.1336 4.0251,4.1179 11.5989,-0.045 3.6523,-2.0076 6.7382,-3.5165 6.8575,-3.3532 0.1193,0.1633 1.7212,2.9679 3.5597,6.2324 2.7437,4.8716 3.0867,6.0867 1.9134,6.7795 -0.7863,0.4642 -3.9045,2.2958 -6.9295,4.0703 -5.8335,3.4217 -7.3412,6.35674 -4.4837,8.72824 1.3618,1.1303 2.6642,0.9999 8.3692,-0.8375 3.716,-1.1968 7.2047,-2.17604 7.7528,-2.17604 0.548,0 1.8115,2.58754 2.8077,5.75004 0.9962,3.1625 2.0052,6.257004 2.2422,6.876604 0.2371,0.6196 -0.7391,1.4203 -2.1693,1.7793 -1.4302,0.3589 -5.0571,1.5718 -8.0597,2.6952 -4.4433,1.6625 -5.4592,2.4717 -5.4592,4.3483 0,3.9387 1.9306,4.63 10.0744,3.6075 4.0634,-0.5103 7.5482,-0.7676 7.7438,-0.572 0.6284,0.6284 2.2864,15.7437 1.7822,16.2479 -0.2674,0.2674 -3.7493,0.8444 -7.7376,1.2822 -4.9656,0.5451 -7.6415,1.3293 -8.4885,2.4877 -2.5796,3.5278 1.2533,6.4843 8.4408,6.5109 2.0266,0.01 4.7267,0.2927 6.0001,0.6337 2.2182,0.5941 2.2864,0.8976 1.627,7.2364 -0.3786,3.639 -0.8275,6.8615 -0.9976,7.1612 -0.17,0.2997 -3.5992,0.2433 -7.6203,-0.1252 -8.3182,-0.7625 -9.5026,-0.5088 -10.3689,2.2207 -0.9421,2.9682 0.9873,4.4955 8.6002,6.8079 3.9247,1.1921 6.9444,2.6715 6.9444,3.4023 0,1.7529 -3.0812,10.9443 -4.0172,11.9836 -0.4132,0.4588 -3.4354,0.081 -6.7159,-0.8394 -7.7929,-2.1865 -10.5045,-1.7777 -10.9579,1.6522 -0.3115,2.3563 0.3937,3.0542 6.4205,6.3546 3.7238,2.0392 6.9375,3.8651 7.1416,4.0575 0.3174,0.2992 -5.383,11.1317 -6.5123,12.3754 -0.217,0.239 -3.5574,-1.0955 -7.4231,-2.9656 -5.4725,-2.6474 -7.4057,-3.1638 -8.7321,-2.3324 -3.539,2.2181 -2.5326,4.81 3.7993,9.7846 3.3518,2.6333 5.9597,5.1716 5.7956,5.6407 -0.5495,1.57 -9.2878,11.8404 -10.116,11.8896 -0.4496,0.027 -3.3033,-1.9764 -6.3417,-4.4514 -5.768,-4.6987 -6.1811,-4.8823 -8.7591,-3.8931 -2.9142,1.1183 -1.7431,5.3852 3.0026,10.9401 l 4.5843,5.366 -3.7372,3.2935 c -7.6701,6.7595 -6.9568,6.7686 -13.3987,-0.1713 -5.3433,-5.7564 -5.9278,-6.1177 -7.9014,-4.8852 -2.8946,1.8077 -2.6829,4.2109 0.9358,10.6229 1.6869,2.9891 2.8634,5.9505 2.6144,6.5809 -0.6764,1.7125 -11.881,7.3043 -12.3153,6.1462 -0.2063,-0.55 -1.8631,-3.475 -3.6818,-6.5 -2.6498,-4.4072 -3.8448,-5.5201 -6.014,-5.6012 -3.728,-0.1393 -4.1701,2.5762 -1.7173,10.5495 1.091,3.5465 1.8853,6.5065 1.7652,6.5778 -2.4478,1.4517 -14.3853,4.7927 -14.3859,4.0263 0,-2.8384 -4.6265,-14.4513 -5.9575,-14.9621 -0.8359,-0.3207 -2.4306,-0.096 -3.5438,0.5 -1.8671,0.9993 -1.97,1.693 -1.3274,8.9522 0.7935,8.9638 1.5144,8.255 -9.6226,9.4604 -5.2623,0.5696 -5.658,0.4619 -6.2363,-1.6974 -0.3397,-1.268 -0.6237,-3.9638 -0.6312,-5.9904 -0.04,-10.6956 -7.5101,-13.1017 -8.6313,-2.7801 -1.1634,10.7091 -1.2667,10.9764 -4.1777,10.8148 -1.4875,-0.083 -4.7167,-0.4201 -7.176,-0.75 z m 41.4713,-32.989 c 4.4,-1.1754 12.95,-4.5726 19,-7.5493 20.7913,-10.2295 35.832,-25.2702 46.0615,-46.0614 8.4416,-17.1572 9.8219,-23.4813 9.8219,-45 0,-21.5188 -1.3803,-27.8428 -9.8219,-45.000004 -10.2295,-20.79134 -25.2702,-35.83204 -46.0615,-46.06154 -17.1572,-8.4416 -23.4812,-9.8219 -45,-9.8219 -21.5187,0 -27.8428,1.3803 -44.999898,9.8219 -20.7913,10.2295 -35.832,25.2702 -46.0615,46.06154 -8.4416,17.157204 -9.8219,23.481204 -9.8219,45.000004 0,21.5187 1.3803,27.8428 9.8219,45 13.8064,28.0611 39.0303,47.8591 69.561398,54.5983 11.8216,2.6094 35.9097,2.1085 47.5,-0.9876 z m -33.9285,0.3178 c -1.1027,-1.1026 -1.5715,-3.4892 -1.5715,-8 0,-6.1102 -0.1182,-6.4286 -2.3881,-6.4286 -7.5071,0 -28.358998,-8.2964 -37.111798,-14.7657 l -4,-2.9565 -4.7072,4.3611 c -2.5889,2.3986 -5.4657,4.3611 -6.3929,4.3611 -1.9056,0 -11.3999,-9.0778 -11.3999,-10.8999 0,-0.6522 2.0513,-3.3788 4.5585,-6.0591 l 4.5585,-4.8734 -3.4427,-4.8338 c -1.8935,-2.6585 -4.8408,-7.6253 -6.5494,-11.0371 -3.3164,-6.6221 -8.1249,-21.9556 -8.1249,-25.9085 0,-2.2699 -0.3184,-2.3881 -6.4286,-2.3881 -8.4221,0 -9.5714,-1.1408 -9.5714,-9.5 0,-8.3593 1.1493,-9.5 9.5714,-9.5 6.1102,0 6.4286,-0.1183 6.4286,-2.3882 0,-7.5638 7.85,-27.363404 14.6157,-36.864144 1.8614,-2.6138 3.3843,-5.11 3.3843,-5.5471 0,-0.4371 -1.8,-2.5524 -4,-4.7006 -2.2268,-2.1745 -4,-4.8635 -4,-6.0661 0,-2.1898 8.8933,-11.4339 11,-11.4339 0.5971,0 3.2918,2.0635 5.9881,4.5856 l 4.9025,4.5857 4.3047,-2.9527 c 9.5919,-6.5794 29.157298,-14.2186 36.416498,-14.2186 2.2699,0 2.3881,-0.3184 2.3881,-6.4286 0,-8.4221 1.1408,-9.5714 9.5,-9.5714 8.3593,0 9.5,1.1493 9.5,9.5714 0,6.1102 0.1183,6.4286 2.3882,6.4286 7.51,0 28.3674,8.2999 37.1118,14.768 l 4,2.9588 5.1902,-4.8634 c 2.8546,-2.6749 5.6863,-4.8634 6.2928,-4.8634 2.0589,0 11.017,9.2309 11.017,11.3525 0,1.1433 -2.0648,4.1752 -4.5886,6.7374 l -4.5886,4.6587 3.4728,4.8757 c 1.9101,2.68164 4.8709,7.66724 6.5795,11.07914 3.3163,6.622004 8.1249,21.955504 8.1249,25.908404 0,2.2699 0.3184,2.3882 6.4286,2.3882 8.4221,0 9.5714,1.1407 9.5714,9.5 0,8.3592 -1.1493,9.5 -9.5714,9.5 -6.1102,0 -6.4286,0.1182 -6.4286,2.3881 0,7.2112 -7.6357,26.8191 -14.1329,36.292 -1.5769,2.2991 -2.8671,4.5025 -2.8671,4.8963 0,0.3939 2.025,2.881 4.5,5.527 2.475,2.646 4.5,5.3444 4.5,5.9966 0,1.8221 -9.4943,10.8999 -11.3999,10.8999 -0.9272,0 -3.8788,-2.0513 -6.5592,-4.5585 l -4.8734,-4.5585 -4.8337,3.4427 c -2.6586,1.8935 -7.6253,4.8408 -11.0372,6.5494 -6.622,3.3163 -21.9555,8.1249 -25.9084,8.1249 -2.2699,0 -2.3882,0.3184 -2.3882,6.4286 0,8.4221 -1.1407,9.5714 -9.5,9.5714 -4.4459,0 -6.8296,-0.4724 -7.9285,-1.5714 z m 12.4285,-11.4286 c 1.1,-1.1 2,-3.125 2,-4.5 0,-1.375 -0.9,-3.4 -2,-4.5 -1.1,-1.1 -3.125,-2 -4.5,-2 -1.375,0 -3.4,0.9 -4.5,2 -1.1,1.1 -2,3.125 -2,4.5 0,1.375 0.9,3.4 2,4.5 1.1,1.1 3.125,2 4.5,2 1.375,0 3.4,-0.9 4.5,-2 z m -14,-35.7406 0,-28.7406 -20,19.9813 c -10.999898,10.9897 -19.995998,20.2104 -19.991198,20.4906 0.019,1.105 12.2541,8.3135 18.683998,11.008 3.744,1.5688 9.9572,3.5243 13.8072,4.3454 3.85,0.8211 7.1125,1.5296 7.25,1.5744 0.1375,0.045 0.25,-12.8517 0.25,-28.6591 z m 32.2511,25.673 c 6.2129,-1.6729 14.6,-5.612 21.4785,-10.0874 l 6.2296,-4.0533 -20.1782,-20.8958 c -11.0979,-11.4927 -20.3137,-20.8958 -20.4795,-20.8958 -0.1658,0 -0.3015,13.2169 -0.3015,29.3709 l 0,29.3708 4.6012,-0.8596 c 2.5306,-0.4727 6.4231,-1.3502 8.6499,-1.9498 z m -76.887998,-14.4383 c 5.3101,-5.31 -0.6978,-14.0612 -7.247,-10.5561 -6.1907,3.3131 -4.0989,12.062 2.884,12.062 1.5714,0 3.5348,-0.6776 4.363,-1.5059 z m 117.999998,0 c 5.31,-5.31 -0.6978,-14.0612 -7.247,-10.5561 -6.1907,3.3131 -4.099,12.062 2.8839,12.062 1.5715,0 3.5348,-0.6776 4.3631,-1.5059 z m -105.862998,-33.494 19.981198,-20 -29.111498,0 -29.1115,0 0.8596,4.6011 c 1.374,7.3549 2.8656,12.3042 5.5149,18.2988 3.0666,6.9388 9.52,17.0796 10.8766,17.0913 0.5552,0 10.001,-8.9912 20.9907,-19.9912 z m 109.822998,14.0484 c 5.044,-7.8292 9.1993,-17.9155 10.9374,-26.5484 l 1.4092,-7 -13.8348,-0.2775 c -7.6092,-0.1526 -20.2474,-0.1526 -28.0849,0 l -14.25,0.2775 19.4663,19.75 c 10.7065,10.8625 19.7065,19.746 20,19.7412 0.2936,-0.01 2.2541,-2.6791 4.3568,-5.9428 z M 53.915962,138.50406 c 1.1,-1.1 2,-3.125 2,-4.5 0,-1.375 -0.9,-3.4 -2,-4.5 -1.1,-1.1 -3.125,-2 -4.5,-2 -1.375,0 -3.4,0.9 -4.5,2 -1.1,1.1 -2,3.125 -2,4.5 0,1.375 0.9,3.4 2,4.5 1.1,1.1 3.125,2 4.5,2 1.375,0 3.4,-0.9 4.5,-2 z m 165.999898,0 c 1.1,-1.1 2,-3.125 2,-4.5 0,-1.375 -0.9,-3.4 -2,-4.5 -1.1,-1.1 -3.125,-2 -4.5,-2 -1.375,0 -3.4,0.9 -4.5,2 -1.1,1.1 -2,3.125 -2,4.5 0,1.375 0.9,3.4 2,4.5 1.1,1.1 3.125,2 4.5,2 1.375,0 3.4,-0.9 4.5,-2 z m -128.999898,-34.5 c -11.265,-11.275004 -20.7705,-20.500044 -21.1234,-20.500044 -1.0726,0 -8.6156,12.13944 -11.2468,18.100044 -2.6472,5.997 -4.1391,10.9496 -5.512,18.2988 l -0.8596,4.6012 29.6117,0 29.611698,0 -20.481598,-20.5 z m 120.882098,15.8988 c -2.1722,-11.6276 -5.6326,-20.2848 -12.0505,-30.148804 -2.2366,-3.43754 -4.1303,-6.25004 -4.2083,-6.25004 -0.078,0 -9.3584,9.22504 -20.6234,20.500044 l -20.4817,20.5 29.1118,0 29.1117,0 -0.8596,-4.6012 z m -29.8909,-49.389544 c -0.016,-0.943 -11.442,-7.8799 -17.0913,-10.3766 -5.9946,-2.6493 -10.9439,-4.1409 -18.2988,-5.5149 l -4.6012,-0.8596 0,28.6115 0,28.611544 20,-19.981204 c 11,-10.98974 19.9961,-20.21054 19.9913,-20.49074 z m -58.9913,11.1198 0,-27.8709 -4.6011,0.8596 c -11.4778,2.1442 -25.536098,7.9964 -31.898798,13.2786 l -3,2.4906 19.490298,19.55654 c 10.7197,10.756004 19.6072,19.556504 19.75,19.556504 0.1428,0 0.2596,-12.541904 0.2596,-27.870944 z m -44.314398,-2.3034 c 2.8445,-2.6723 2.9692,-6.171 0.3145,-8.8257 -4.2487,-4.2487 -11,-1.4265 -11,4.5983 0,5.8482 6.305,8.3426 10.6855,4.2274 z m 117.091898,0.6176 c 2.6967,-1.8888 2.9944,-6.9329 0.5675,-9.6146 -3.4908,-3.8573 -11.345,-0.8411 -11.345,4.3568 0,2.8393 3.7637,6.8145 6.4518,6.8145 1.1568,0 3.1034,-0.7006 4.3257,-1.5567 z m -58.7775,-24.4433 c 1.1,-1.1 2,-3.125 2,-4.5 0,-1.375 -0.9,-3.4 -2,-4.5 -1.1,-1.1 -3.125,-2 -4.5,-2 -1.375,0 -3.4,0.9 -4.5,2 -1.1,1.1 -2,3.125 -2,4.5 0,1.375 0.9,3.4 2,4.5 1.1,1.1 3.125,2 4.5,2 1.375,0 3.4,-0.9 4.5,-2 z"
     id="path3024"
     inkscape:connector-curvature="0" />
</svg>
