<?xml version="1.0" encoding="UTF-8" standalone="no"?>
<!-- Created with Inkscape (http://www.inkscape.org/) -->

<svg
   xmlns:dc="http://purl.org/dc/elements/1.1/"
   xmlns:cc="http://creativecommons.org/ns#"
   xmlns:rdf="http://www.w3.org/1999/02/22-rdf-syntax-ns#"
   xmlns:svg="http://www.w3.org/2000/svg"
   xmlns="http://www.w3.org/2000/svg"
   xmlns:sodipodi="http://sodipodi.sourceforge.net/DTD/sodipodi-0.dtd"
   xmlns:inkscape="http://www.inkscape.org/namespaces/inkscape"
   id="svg3436"
   version="1.1"
   inkscape:version="0.48.3.1 r9886"
   width="506"
   height="506"
   sodipodi:docname="engrenagem-mini.png">
  <metadata
     id="metadata3442">
    <rdf:RDF>
      <cc:Work
         rdf:about="">
        <dc:format>image/svg+xml</dc:format>
        <dc:type
           rdf:resource="http://purl.org/dc/dcmitype/StillImage" />
        <dc:title></dc:title>
      </cc:Work>
    </rdf:RDF>
  </metadata>
  <defs
     id="defs3440" />
  <sodipodi:namedview
     pagecolor="#ffffff"
     bordercolor="#666666"
     borderopacity="1"
     objecttolerance="10"
     gridtolerance="10"
     guidetolerance="10"
     inkscape:pageopacity="0"
     inkscape:pageshadow="2"
     inkscape:window-width="1280"
     inkscape:window-height="708"
     id="namedview3438"
     showgrid="false"
     inkscape:zoom="0.46640316"
     inkscape:cx="253"
     inkscape:cy="253"
     inkscape:window-x="-4"
     inkscape:window-y="-4"
     inkscape:window-maximized="1"
     inkscape:current-layer="svg3436" />
  <path
     style="fill:#455c6f;fill-opacity:1"
     d="m 243.54638,503.25 c 7.18604,-16.53911 6.97586,-31.20448 -0.67491,-47.09128 -5.28053,-10.96501 -13.70159,-19.56124 -24.01338,-24.51289 -9.43365,-4.52997 -14.27039,-5.59726 -25.35809,-5.59557 -25.71791,0.004 -48.11003,18.92242 -52.61114,44.44974 -0.67886,3.85 -1.36607,7.17201 -1.52714,7.38223 -0.42671,0.55695 -17.62884,-9.34453 -26.36172,-15.17371 -4.125,-2.75343 -11.775,-8.4138 -17,-12.57861 -9.36074,-7.46137 -27.018809,-23.83814 -26.980196,-25.02248 0.01089,-0.33409 3.179411,-2.09184 7.041154,-3.90612 C 93.17588,413.16056 105.97044,392.5412 105.97044,373 c 0,-17.46953 -9.87377,-35.81049 -24.29695,-45.13263 C 62.092088,315.21129 39.900228,315.45441 20.38803,328.53877 12.916724,333.54882 13.845608,334.23245 10.144577,321 4.464031,300.69011 1,275.93474 1,255.64914 1,243.79486 1.137251,242.84168 2.75,243.4957 c 17.876082,7.24932 31.106046,7.07395 47.09128,-0.62423 10.965008,-5.28053 19.561236,-13.70159 24.512888,-24.01338 C 78.884141,209.42444 79.951426,204.5877 79.949737,193.5 79.945821,167.78209 61.027317,145.38997 35.5,140.88886 31.65,140.21 28.327995,139.52279 28.117767,139.36172 27.560819,138.93501 37.462301,121.73288 43.291479,113 c 2.753429,-4.125 8.413802,-11.775 12.578607,-17 7.461372,-9.360742 23.838149,-27.018809 25.022484,-26.980196 0.33409,0.01089 2.09184,3.179411 3.90612,7.041154 6.28012,13.367371 20.83724,24.755672 36.30442,28.401602 C 154.34973,112.29947 187.07346,86.351081 187.26407,52 187.33326,39.530415 183.18235,27.142293 175.7897,17.755531 l -2.949,-3.744468 2.32965,-0.884392 C 192.42923,6.5747764 226.99062,1 250.35086,1 c 11.87358,0 12.80462,0.1346245 12.10276,1.75 -7.18604,16.53911 -6.97586,31.204483 0.67491,47.09128 5.28053,10.965008 13.70159,19.561236 24.01338,24.512888 9.34777,4.488733 14.25033,5.59098 25.00275,5.621386 18.32849,0.05183 34.80072,-8.853214 44.92172,-24.285111 4.13667,-6.307345 7.54196,-15.432462 8.56085,-22.940443 0.35454,-2.6125 0.93984,-4.75 1.30066,-4.75 1.2011,0 18.33446,10.124817 27.04809,15.983852 13.08174,8.79614 23.35384,17.250844 36.1879,29.785337 l 11.66388,11.391627 -4.11133,3.669592 c -6.88539,6.145605 -9.50596,9.385005 -13.16411,16.272702 -8.57828,16.15152 -8.73251,32.91772 -0.45765,49.75276 7.11903,14.48353 20.40956,24.93946 36.51861,28.72996 8.56929,2.01637 20.6127,1.44432 28.51291,-1.35434 l 5.62619,-1.99309 2.58497,10.6308 C 502.27213,211.16366 505,231.18372 505,247.10595 l 0,7.89405 -7.8185,0 c -29.25431,0 -53.54149,24.4572 -53.50378,53.87834 0.0268,20.90418 11.18713,39.19572 29.62468,48.55413 l 7.63324,3.87444 -4.51249,8.73703 c -5.65728,10.95352 -18.09409,29.97338 -26.45363,40.45606 -6.46624,8.10851 -23.76036,26.52111 -24.86649,26.47469 -0.33166,-0.0139 -2.171,-3.27642 -4.0874,-7.25 -6.4536,-13.38125 -20.79825,-24.57589 -36.11874,-28.18725 -33.24662,-7.83691 -65.97035,18.11148 -66.16096,52.46256 -0.0692,12.46959 4.08172,24.85771 11.47437,34.24447 l 2.949,3.74447 -2.32965,0.88439 C 313.57077,499.42522 279.00938,505 255.64914,505 c -11.87358,0 -12.80462,-0.13462 -12.10276,-1.75 z m 34.88724,-126.36464 c 23.06966,-4.64028 46.22019,-16.92426 62.65466,-33.24542 33.05265,-32.82475 45.71048,-77.69774 34.44466,-122.10894 -6.57051,-25.90172 -23.76016,-52.11917 -44.83031,-68.37467 -36.71336,-28.32415 -85.37024,-34.57172 -127.4808,-16.36861 -57.56003,24.88145 -88.14854,86.99724 -72.74453,147.72163 6.55992,25.85999 23.76364,52.0894 44.82007,68.33432 29.58251,22.82275 66.45932,31.41895 103.13625,24.04169 z M 238.5,322.58332 C 212.8962,316.65831 193.48448,299.11883 185.28406,274.5 c -2.3597,-7.08415 -2.66477,-9.5455 -2.66477,-21.5 0,-11.9545 0.30507,-14.41585 2.66477,-21.5 3.77479,-11.33247 9.06044,-19.82993 17.72323,-28.49271 8.66278,-8.66279 17.16024,-13.94844 28.49271,-17.72323 7.08415,-2.3597 9.5455,-2.66477 21.5,-2.66477 11.9545,0 14.41585,0.30507 21.5,2.66477 11.33247,3.77479 19.82993,9.06044 28.49271,17.72323 8.66279,8.66278 13.94844,17.16024 17.72323,28.49271 2.3597,7.08415 2.66477,9.5455 2.66477,21.5 0,11.9545 -0.30507,14.41585 -2.66477,21.5 -3.77479,11.33247 -9.06044,19.82993 -17.72323,28.49271 -13.61412,13.61413 -28.17304,19.92842 -47.49271,20.5979 -7.14663,0.24765 -13.10184,-0.10521 -17,-1.00729 z"
     id="path3446"
     inkscape:connector-curvature="0" />
</svg>
