<?xml version="1.0" encoding="UTF-8" standalone="no"?>
<!-- Created with Inkscape (http://www.inkscape.org/) -->

<svg
   xmlns:dc="http://purl.org/dc/elements/1.1/"
   xmlns:cc="http://creativecommons.org/ns#"
   xmlns:rdf="http://www.w3.org/1999/02/22-rdf-syntax-ns#"
   xmlns:svg="http://www.w3.org/2000/svg"
   xmlns="http://www.w3.org/2000/svg"
   xmlns:sodipodi="http://sodipodi.sourceforge.net/DTD/sodipodi-0.dtd"
   xmlns:inkscape="http://www.inkscape.org/namespaces/inkscape"
   id="svg3836"
   version="1.1"
   inkscape:version="0.48.3.1 r9886"
   width="500"
   height="500"
   sodipodi:docname="engre02.png">
  <metadata
     id="metadata3842">
    <rdf:RDF>
      <cc:Work
         rdf:about="">
        <dc:format>image/svg+xml</dc:format>
        <dc:type
           rdf:resource="http://purl.org/dc/dcmitype/StillImage" />
        <dc:title></dc:title>
      </cc:Work>
    </rdf:RDF>
  </metadata>
  <defs
     id="defs3840" />
  <sodipodi:namedview
     pagecolor="#ffffff"
     bordercolor="#666666"
     borderopacity="1"
     objecttolerance="10"
     gridtolerance="10"
     guidetolerance="10"
     inkscape:pageopacity="0"
     inkscape:pageshadow="2"
     inkscape:window-width="1280"
     inkscape:window-height="708"
     id="namedview3838"
     showgrid="false"
     inkscape:zoom="0.472"
     inkscape:cx="250"
     inkscape:cy="250"
     inkscape:window-x="-4"
     inkscape:window-y="-4"
     inkscape:window-maximized="1"
     inkscape:current-layer="svg3836" />
  <path
     style="fill:#999999"
     d="m 216.21679,498.4393 c -3.17932,-2.22689 -4.71871,-5.6745 -8.28858,-18.56307 C 203.29173,463.13681 200.6749,459 194.72251,459 c -4.35563,0 -6.27865,1.40894 -19.31896,14.15443 C 165.56824,482.76737 163.90948,484 160.80854,484 c -2.16493,0 -4.15281,-0.72294 -5.21488,-1.8965 -2.16923,-2.39698 -3.54769,-11.80345 -3.57355,-24.38562 -0.0225,-10.94968 -1.41189,-15.61803 -5.43217,-18.25222 -3.94042,-2.58186 -7.91312,-1.28658 -21.9155,7.14542 -14.99524,9.0299 -19.18049,10.0939 -22.61457,5.74922 -2.72003,-3.44129 -2.46899,-7.34463 1.54316,-23.99345 5.42463,-22.51004 0.26717,-26.89369 -22.85184,-19.42322 -12.75226,4.12065 -18.87892,4.85661 -22.21781,2.66889 -4.34709,-2.84833 -3.48526,-7.2786 4.46862,-22.97095 8.68557,-17.13594 9.17799,-21.89084 2.62882,-25.38471 C 63.01631,361.86313 59.7772,361.62278 46,361.80035 c -17.95493,0.23142 -20.77882,-0.38663 -22.36424,-4.89474 -1.33002,-3.7819 1.28006,-8.39905 10.37903,-18.36019 9.29575,-10.17657 12.08691,-14.41753 12.20422,-18.5434 0.17905,-6.29769 -5.10229,-9.20785 -23.5593,-12.98181 C 11.030523,304.64236 6.213713,302.56316 4.715241,299.27437 2.7106,294.87466 6.116513,290.77293 19.057631,282.00186 32.08087,273.17514 36,269.24224 36,265 36,260.20022 31.75474,256.55962 18.520557,250.01017 6.677009,244.14894 0,238.98542 0,235.68771 c 0,-4.3009 6.762892,-8.52915 21,-13.12949 11.28134,-3.64527 16.52153,-6.74691 17.85333,-10.56732 1.89419,-5.43368 -0.87801,-9.45868 -14.72651,-21.38172 -10.079247,-8.67784 -12.827909,-12.67968 -11.725613,-17.07158 0.980134,-3.90517 5.519844,-5.53369 18.387713,-6.59621 19.0543,-1.57334 24.3051,-3.4835 25.78508,-9.3802 0.83531,-3.32814 -2.52703,-10.43646 -9.47146,-20.02363 C 39.95569,127.67095 38,123.94695 38,120.20465 c 0,-6.73869 6.66045,-8.07822 23.86047,-4.79872 12.38709,2.36182 18.39893,2.13564 21.83377,-0.82143 4.09014,-3.52124 3.60707,-9.09656 -2.10506,-24.295345 C 79.02044,83.454294 77,76.368255 77,74.194143 c 0,-8.132492 6.68181,-9.349238 19.5,-3.550914 4.4,1.990346 11.22566,4.785764 15.16814,6.21204 6.94305,2.511801 7.27896,2.540382 10.69751,0.910189 5.23182,-2.494879 6.31286,-7.01203 4.80262,-20.067747 -1.658,-14.333098 -1.51652,-21.755498 0.46871,-24.589817 2.59001,-3.697754 8.86427,-2.51266 15.98246,3.018796 3.09531,2.405321 8.38469,6.508918 11.75419,9.119105 7.74911,6.002849 11.64906,7.401659 15.81973,5.674113 4.28919,-1.776642 6.34694,-7.056961 8.32078,-21.351749 C 181.8658,12.53726 184.05054,8 189.89946,8 c 2.98597,0 8.35386,5.154407 15.10054,14.5 15.41134,21.347993 21.84653,20.731397 31.42006,-3.010553 4.62741,-11.4757882 8.18993,-17.3906671 11.15284,-18.5171644 5.6392,-2.1440181 9.45634,2.2717071 16.00704,18.5171644 C 273.15347,43.231397 279.58866,43.847993 295,22.5 301.74668,13.154407 307.11457,8 310.10054,8 c 5.84892,0 8.03366,4.53726 10.38532,21.568159 1.97384,14.294788 4.03159,19.575107 8.32078,21.351749 4.17067,1.727546 8.07062,0.328736 15.81973,-5.674113 3.3695,-2.610187 8.65888,-6.713784 11.75419,-9.119105 7.11819,-5.531456 13.39245,-6.71655 15.98246,-3.018796 1.98523,2.834319 2.12671,10.256719 0.46871,24.589817 -1.51024,13.055717 -0.4292,17.572868 4.80262,20.067747 3.41855,1.630193 3.75446,1.601612 10.69751,-0.910189 3.94248,-1.426276 10.76814,-4.221694 15.16814,-6.21204 12.93623,-5.851721 19.5,-4.597984 19.5,3.724667 0,2.040728 -2.06513,9.205295 -4.58918,15.921259 -5.71213,15.198785 -6.1952,20.774105 -2.10506,24.295345 3.43484,2.95707 9.44668,3.18325 21.83377,0.82143 17.20002,-3.2795 23.86047,-1.93997 23.86047,4.79872 0,3.7423 -1.95569,7.4663 -9.10254,17.33291 -6.94443,9.58717 -10.30677,16.69549 -9.47146,20.02363 1.47998,5.8967 6.73078,7.80686 25.78508,9.3802 12.86787,1.06252 17.40758,2.69104 18.38771,6.59621 1.1023,4.3919 -1.64636,8.39374 -11.72561,17.07158 -13.84851,11.92304 -16.6207,15.94804 -14.72651,21.38172 1.3318,3.82041 6.57199,6.92205 17.85333,10.56732 14.23711,4.60034 21,8.82859 21,13.12949 0,3.29771 -6.67701,8.46123 -18.52056,14.32246 C 468.24526,256.55962 464,260.20022 464,265 c 0,4.24224 3.91914,8.17514 16.94237,17.00186 12.94112,8.77107 16.34703,12.8728 14.34239,17.27251 -1.49847,3.28879 -6.31528,5.36799 -17.94447,7.74584 -18.45701,3.77396 -23.73835,6.68412 -23.5593,12.98181 0.11731,4.12587 2.90847,8.36683 12.20422,18.5434 9.09896,9.96114 11.70905,14.57829 10.37903,18.36019 -1.58542,4.50811 -4.40931,5.12616 -22.36424,4.89474 -13.7772,-0.17757 -17.01631,0.0628 -19.62882,1.45651 -6.54917,3.49387 -6.05675,8.24877 2.62882,25.38471 7.95387,15.69235 8.81571,20.12262 4.46862,22.97095 -3.33889,2.18772 -9.46555,1.45176 -22.21781,-2.66889 -23.11901,-7.47047 -28.27647,-3.08682 -22.85184,19.42322 4.01215,16.64882 4.26319,20.55216 1.54316,23.99345 -3.43408,4.34468 -7.61933,3.28068 -22.61457,-5.74922 -14.00238,-8.432 -17.97508,-9.72728 -21.9155,-7.14542 -4.02028,2.63419 -5.40966,7.30254 -5.43217,18.25222 -0.0259,12.58217 -1.40432,21.98864 -3.57355,24.38562 -1.06207,1.17356 -3.04995,1.8965 -5.21488,1.8965 -3.10094,0 -4.7597,-1.23263 -14.59501,-10.84557 C 311.55614,460.40894 309.63312,459 305.27749,459 c -5.95239,0 -8.56922,4.13681 -13.2057,20.87623 -1.73304,6.25693 -3.80559,12.64211 -4.60568,14.1893 -1.54648,2.99056 -5.09527,5.93447 -7.15382,5.93447 -2.85913,0 -8.63461,-6.83802 -14.49083,-17.15676 -12.79254,-22.54064 -18.85038,-22.54064 -31.64292,0 C 228.32232,493.16198 222.54684,500 219.68771,500 c -0.68348,0 -2.2454,-0.70232 -3.47092,-1.5607 z M 273.02623,444.951 C 348.8888,435.5597 411.94974,384.24239 435.9653,312.35553 443.15839,290.82411 446,273.1664 446,250 446,226.8336 443.15839,209.17589 435.9653,187.64447 411.94974,115.75761 348.8888,64.440295 273.02623,55.048998 c -10.88935,-1.348032 -35.16311,-1.348032 -46.05246,0 C 151.1112,64.440295 88.05026,115.75761 64.0347,187.64447 56.84161,209.17589 54,226.8336 54,250 c 0,23.1664 2.84161,40.82411 10.0347,62.35553 23.87373,71.46231 86.62314,122.80421 162.00768,132.55554 9.47914,1.22617 37.21109,1.24974 46.98385,0.0399 z M 235.3128,418.96079 C 173.64563,413.89836 117.9727,373.40817 93.74445,316 70.27964,260.40076 78.24853,196.11631 114.5598,148.08412 c 8.66874,-11.46691 23.83794,-26.49821 35.19305,-34.87309 59.12643,-43.608334 141.36787,-43.608334 200.4943,0 47.03478,34.6902 73.44413,91.9918 68.79346,149.26437 -3.37499,41.56272 -19.10164,76.29421 -47.93954,105.87201 -29.21962,29.96931 -65.84421,47.16643 -107.86573,50.6485 -12.88916,1.06804 -14.50938,1.06601 -27.92254,-0.0351 z M 282.199,404.0718 c 61.48427,-13.26198 108.51113,-60.43356 122.00795,-122.38339 1.90821,-8.75859 2.21972,-13.20567 2.21972,-31.68841 0,-18.48274 -0.31151,-22.92982 -2.21972,-31.68841 C 390.66073,156.13499 343.86501,109.33927 281.68841,95.79305 272.92982,93.884844 268.48274,93.573334 250,93.573334 c -18.48274,0 -22.92982,0.31151 -31.68841,2.219716 -62.1766,13.54622 -108.97232,60.34194 -122.51854,122.51854 -1.90821,8.75859 -2.21972,13.20567 -2.21972,31.68841 0,18.48274 0.31151,22.92982 2.21972,31.68841 14.15581,64.9746 64.80396,113.19269 130.07645,123.8355 12.8199,2.09031 43.58302,1.29727 56.3295,-1.45211 z M 236.03332,378.8504 C 179.31098,372.92912 132.44404,329.10278 122.30451,272.5 c -2.10925,-11.77465 -2.10925,-33.22535 0,-45 8.95452,-49.98761 46.75116,-90.73301 95.5412,-102.99497 66.77008,-16.78073 134.24255,20.50294 155.62558,85.99497 7.90986,24.22634 7.90986,54.77366 0,79 -16.21834,49.67358 -59.18224,84.19667 -111.32724,89.45558 -11.57474,1.16734 -14.01499,1.15751 -26.11073,-0.10518 z M 257.6,358.6 l 3.4,-3.4 0,-14.7 0,-14.7 -3.4,-3.4 c -2.90213,-2.90213 -4.08824,-3.4 -8.1,-3.4 -4.01176,0 -5.19787,0.49787 -8.1,3.4 l -3.4,3.4 0,14.7 0,14.7 3.4,3.4 c 2.90213,2.90213 4.08824,3.4 8.1,3.4 4.01176,0 5.19787,-0.49787 8.1,-3.4 z m -73.80034,-28.02732 c 3.28265,-1.73511 17.50417,-16.14539 19.1891,-19.44379 4.58069,-8.96712 -3.72758,-19.78496 -13.12521,-17.08976 -4.37546,1.25487 -21.45323,18.18755 -22.9658,22.7707 -1.4669,4.44473 1.11539,11.58693 4.9404,13.66438 3.43303,1.86456 8.5407,1.90661 11.96151,0.0985 z m 144.68666,-0.74058 c 1.51582,-1.19235 3.38942,-3.6838 4.16356,-5.53657 2.44881,-5.86082 0.60319,-9.59953 -9.89794,-20.05044 -9.45117,-9.40597 -13.04417,-11.48537 -18.15688,-10.50801 -3.49999,0.66906 -8.19597,5.40612 -8.88616,8.96389 -1.15195,5.93808 0.30914,8.51781 10.78888,19.04903 9.93253,9.98132 10.31828,10.25 14.7162,10.25 3.1187,0 5.36918,-0.67087 7.27234,-2.1679 z M 264.28426,305.42634 C 304.16046,295.09338 320.33256,246.9041 294.79872,214.5 283.93458,200.71271 267.86391,193 250,193 c -31.96748,0 -57,25.03252 -57,57 0,25.89892 16.50866,47.82082 41.5,55.10799 7.69931,2.24502 21.76865,2.3954 29.78426,0.31835 z M 242.4069,280.59349 c -9.31685,-2.26181 -17.62019,-9.33237 -21.69156,-18.47109 -2.8436,-6.38281 -2.8436,-17.86199 0,-24.2448 6.11049,-13.7158 20.9521,-21.70406 35.03466,-18.85687 15.43483,3.1206 25.59398,15.41736 25.59398,30.97927 0,15.35999 -10.10721,27.78165 -25.1432,30.90073 -6.32072,1.31117 -7.20876,1.29139 -13.79388,-0.30724 z M 175.6,256.6 c 2.90213,-2.90213 3.4,-4.08824 3.4,-8.1 0,-4.01176 -0.49787,-5.19787 -3.4,-8.1 l -3.4,-3.4 -14.7,0 -14.7,0 -3.4,3.4 c -2.90213,2.90213 -3.4,4.08824 -3.4,8.1 0,4.01176 0.49787,5.19787 3.4,8.1 l 3.4,3.4 14.7,0 14.7,0 3.4,-3.4 z m 184,0 c 2.90213,-2.90213 3.4,-4.08824 3.4,-8.1 0,-4.01176 -0.49787,-5.19787 -3.4,-8.1 l -3.4,-3.4 -14.7,0 -14.7,0 -3.4,3.4 c -2.90213,2.90213 -3.4,4.08824 -3.4,8.1 0,4.01176 0.49787,5.19787 3.4,8.1 l 3.4,3.4 14.7,0 14.7,0 3.4,-3.4 z m -160,-59 c 3.8076,-3.8076 4.51444,-8.56131 1.99244,-13.39966 -2.50006,-4.79627 -17.79206,-18.87266 -21.3466,-19.6497 -4.72831,-1.03364 -10.2534,1.94099 -12.62486,6.79704 -2.99736,6.13768 -1.36223,9.5763 9.723,20.4472 9.16627,8.98903 9.49776,9.20512 14.12132,9.20512 4.05123,0 5.2255,-0.4908 8.1347,-3.4 z m 123.04,-5.78941 c 10.01669,-9.82302 11.92907,-13.33957 10.31498,-18.96757 -1.1899,-4.14895 -3.47902,-6.53084 -7.5759,-7.88293 -5.53679,-1.8273 -9.08971,0.10082 -19.21915,10.42998 C 297.2183,184.50799 297,184.84344 297,189.4653 c 0,4.05123 0.4908,5.2255 3.4,8.1347 2.9092,2.9092 4.08347,3.4 8.1347,3.4 4.62297,0 4.95584,-0.21686 14.1053,-9.18941 z M 257.6,174.6 l 3.4,-3.4 0,-14.7 0,-14.7 -3.4,-3.4 c -2.90213,-2.90213 -4.08824,-3.4 -8.1,-3.4 -4.01176,0 -5.19787,0.49787 -8.1,3.4 l -3.4,3.4 0,14.7 0,14.7 3.4,3.4 c 2.90213,2.90213 4.08824,3.4 8.1,3.4 4.01176,0 5.19787,-0.49787 8.1,-3.4 z"
     id="path3846"
     inkscape:connector-curvature="0" />
</svg>
