<?xml version="1.0" encoding="UTF-8" standalone="no"?>
<!-- Created with Inkscape (http://www.inkscape.org/) -->

<svg
   xmlns:dc="http://purl.org/dc/elements/1.1/"
   xmlns:cc="http://creativecommons.org/ns#"
   xmlns:rdf="http://www.w3.org/1999/02/22-rdf-syntax-ns#"
   xmlns:svg="http://www.w3.org/2000/svg"
   xmlns="http://www.w3.org/2000/svg"
   xmlns:sodipodi="http://sodipodi.sourceforge.net/DTD/sodipodi-0.dtd"
   xmlns:inkscape="http://www.inkscape.org/namespaces/inkscape"
   id="svg3448"
   version="1.1"
   inkscape:version="0.48.3.1 r9886"
   width="265"
   height="265"
   sodipodi:docname="engrenagem-master.png">
  <metadata
     id="metadata3454">
    <rdf:RDF>
      <cc:Work
         rdf:about="">
        <dc:format>image/svg+xml</dc:format>
        <dc:type
           rdf:resource="http://purl.org/dc/dcmitype/StillImage" />
        <dc:title></dc:title>
      </cc:Work>
    </rdf:RDF>
  </metadata>
  <defs
     id="defs3452" />
  <sodipodi:namedview
     pagecolor="#ffffff"
     bordercolor="#666666"
     borderopacity="1"
     objecttolerance="10"
     gridtolerance="10"
     guidetolerance="10"
     inkscape:pageopacity="0"
     inkscape:pageshadow="2"
     inkscape:window-width="1280"
     inkscape:window-height="708"
     id="namedview3450"
     showgrid="false"
     inkscape:zoom="0.89056604"
     inkscape:cx="132.5"
     inkscape:cy="132.5"
     inkscape:window-x="-4"
     inkscape:window-y="-4"
     inkscape:window-maximized="1"
     inkscape:current-layer="svg3448" />
  <path
     style="fill:#15242b;fill-opacity:1"
     d="m 117.02868,264.09981 -4.47133,-0.59981 0.25576,-5 c 0.14066,-2.75 0.48878,-6.18183 0.7736,-7.62629 C 114.12888,248.12414 111.98235,245 109.55102,245 c -2.06525,0 -3.35816,2.16491 -5.57044,9.32745 -1.19403,3.86581 -2.62211,6.67255 -3.39503,6.67255 -1.11466,0 -4.8207,-1.13753 -11.25799,-3.45552 -0.84888,-0.30568 -0.58833,-2.5423 0.94415,-8.10478 2.08494,-7.5677 2.0878,-7.70365 0.19178,-9.09005 -1.05864,-0.7741 -2.60851,-1.27931 -3.44415,-1.1227 -1.21811,0.22831 -6.42947,8.49729 -8.365059,13.27305 C 78.301904,253.36943 65,247.24604 65,246.21439 c 0,-0.21418 1.575,-3.20578 3.5,-6.64801 3.970175,-7.09933 4.108308,-7.81521 1.928571,-9.99495 -2.56936,-2.56936 -3.988517,-1.87797 -9.082415,4.42484 -2.665386,3.29794 -5.225178,5.99794 -5.688427,6 -0.930441,0.004 -3.730341,-2.09682 -9.232017,-6.92735 l -3.628717,-3.18606 4.601503,-5.85697 c 5.227968,-6.65437 5.838558,-9.6773 2.142073,-10.60506 -1.932827,-0.48511 -3.740269,0.389 -8.441431,4.08245 l -5.982003,4.69972 -3.308568,-3.75433 c -6.545442,-7.42731 -6.509711,-7.2504 -2.177915,-10.78305 8.594196,-7.00871 9.872412,-9.1733 6.882332,-11.65484 -1.943649,-1.61309 -4.804037,-0.81317 -11.453867,3.20311 L 19.618237,202.5 16.213922,196.05619 c -3.879494,-7.34324 -4.024578,-7.00363 4.962146,-11.61534 5.240201,-2.68911 6.905671,-5.78768 4.437491,-8.25586 -1.455998,-1.456 -2.244218,-1.40011 -9.226765,0.65419 -4.199122,1.2354 -7.743304,2.11447 -7.87596,1.9535 C 8.378177,178.63171 7.468426,176.025 6.489164,173 c -0.979262,-3.025 -1.97014,-6.01576 -2.20195,-6.64613 -0.248748,-0.67643 2.372296,-2.04891 6.395656,-3.34901 3.749421,-1.21159 7.627068,-3.13589 8.616992,-4.27623 1.735746,-1.99949 1.732002,-2.14121 -0.105092,-3.9783 -1.7132,-1.7132 -2.670742,-1.81584 -9.512571,-1.01962 l -7.607617,0.88534 -0.474983,-2.55802 c -0.26124,-1.40692 -0.757171,-5.11967 -1.102067,-8.25056 l -0.627085,-5.69254 3.314776,-0.5061 c 1.823128,-0.27835 5.323988,-0.72436 7.779691,-0.99113 10.321683,-1.12128 7.915579,-8.59172 -2.780014,-8.63135 -2.026695,-0.008 -4.726774,-0.29268 -6.000176,-0.63371 -2.218169,-0.59404 -2.286405,-0.89754 -1.626921,-7.23634 0.378595,-3.63897 0.827488,-6.86151 0.997541,-7.16121 0.170053,-0.2997 3.599183,-0.24335 7.62029,0.12522 8.318202,0.76245 9.502618,0.50879 10.368917,-2.22068 0.942094,-2.96827 -0.987273,-4.49556 -8.600184,-6.80791 C 7.019632,102.85962 4,101.38016 4,100.64936 4,98.962048 7.064325,89.725739 7.955254,88.727661 8.334437,88.302874 11.669176,88.889494 15.365784,90.03126 23.371943,92.50411 26,92.016079 26,88.05648 c 0,-2.460502 -0.867893,-3.264809 -7,-6.48714 -3.85,-2.023117 -7,-3.954973 -7,-4.293011 0,-0.53194 5.769921,-11.230194 6.520811,-12.090511 0.150821,-0.1728 3.500384,1.310488 7.443473,3.296196 7.720697,3.88808 11.019263,3.947914 11.058666,0.200598 0.01498,-1.424547 -2.134531,-4.128367 -6.188844,-7.784807 l -6.211794,-5.602194 2.061358,-2.620592 c 1.133746,-1.441325 3.488835,-4.246398 5.233529,-6.233495 l 3.172172,-3.612905 5.570195,4.585691 c 10.744567,8.845516 15.531295,4.595519 6.840434,-6.073425 -2.475,-3.038322 -4.477605,-5.820471 -4.450233,-6.182553 0.05738,-0.759092 9.373034,-8.4965 10.619337,-8.820226 0.456993,-0.118704 3.004255,2.456662 5.660582,5.723034 C 62.795791,36.323263 64.837328,38 66.560634,38 70.731813,38 70.702581,34.081303 66.475013,26.521704 64.437284,22.877905 62.93429,19.768376 63.135026,19.61164 64.289978,18.709844 74.84522,13 75.357331,13 c 0.337633,0 1.933636,2.614425 3.546673,5.809832 3.433276,6.801279 5.270076,8.587079 7.955626,7.734719 2.97866,-0.945388 3.18493,-2.794324 1.08293,-9.706733 -1.06001,-3.4858 -1.93072,-6.818138 -1.93492,-7.4051958 -0.004,-0.5870577 2.57986,-1.8824456 5.74236,-2.8786397 3.1625,-0.9961941 6.22831,-1.9942111 6.8129,-2.2178156 0.5846,-0.2236044 2.13018,2.9965611 3.43462,7.1559231 1.88019,5.995207 2.83978,7.679955 4.63026,8.129337 4.11856,1.033693 4.69415,-0.269058 4.06401,-9.198225 l -0.58488,-8.2877737 2.69655,-0.505406 c 1.4831,-0.2779733 5.22502,-0.78345053 8.31538,-1.12328274 5.26606,-0.57908362 5.6576,-0.47312257 6.23634,1.68769184 0.33963,1.2680627 0.62366,3.9637738 0.63117,5.9904689 0.0396,10.6955927 7.51007,13.1016967 8.63135,2.7800137 0.26677,-2.4557028 0.7135,-5.9603852 0.99273,-7.7881833 l 0.50769,-3.32326937 6.69094,0.69634792 c 3.68002,0.38299136 6.93615,0.83548215 7.23585,1.00553505 0.2997,0.1700529 0.24335,3.5991832 -0.12522,7.6202895 -0.76245,8.3182022 -0.50879,9.5026182 2.22068,10.3689172 2.96827,0.942094 4.49556,-0.987273 6.80791,-8.600184 C 162.14038,7.0196316 163.61984,4 164.35064,4 c 1.6459,0 10.91017,3.0536591 11.88342,3.9169714 0.40373,0.3581278 -0.19225,3.9243746 -1.32439,7.9249926 C 172.72958,23.545688 173.22677,26 176.96746,26 c 2.24635,0 4.20666,-2.306895 7.43539,-8.75 1.44696,-2.8875 2.92438,-5.25 3.28314,-5.25 0.55894,0 11.23399,5.740044 12.12949,6.522105 0.17351,0.151532 -1.09012,3.059986 -2.80808,6.46323 -3.47278,6.87954 -3.67395,11.275962 -0.54317,11.870695 1.3956,0.265113 3.59637,-1.451656 7.60219,-5.930293 l 5.63797,-6.303425 2.62059,2.061358 c 1.44133,1.133746 4.24631,3.488759 6.2333,5.233361 3.99763,3.509957 4.16512,2.741879 -2.29252,10.512968 -1.98656,2.39061 -3.26576,5.034598 -3.26576,6.75 0,4.387284 3.99577,3.741669 11.02589,-1.781501 l 5.85697,-4.601503 3.30857,3.754332 c 5.82482,6.609598 6.33805,7.584266 4.65774,8.845451 C 230.34298,61.030667 227,64.48318 227,66.60141 c 0,4.133621 4.02517,4.117961 11.59898,-0.04512 3.6523,-2.007554 6.73815,-3.516491 6.85745,-3.353192 0.1193,0.163299 1.72118,2.967872 3.55975,6.232384 2.7437,4.871657 3.08663,6.086759 1.91333,6.779536 -0.78623,0.464233 -3.90451,2.295843 -6.92951,4.070246 -5.83343,3.421774 -7.34115,6.3568 -4.48368,8.728282 1.36185,1.130241 2.66419,0.999917 8.3692,-0.837505 C 251.60153,86.979216 255.09029,86 255.63832,86 c 0.54804,0 1.8115,2.5875 2.8077,5.75 0.99619,3.1625 2.00521,6.25698 2.24226,6.876622 0.23706,0.619642 -0.73916,1.420318 -2.16937,1.779278 -1.43021,0.35896 -5.05705,1.57181 -8.05964,2.69522 -4.44329,1.66245 -5.45927,2.47167 -5.45927,4.34828 0,3.93872 1.93062,4.63004 10.07441,3.60747 4.06346,-0.51023 7.54819,-0.7676 7.74385,-0.57195 0.62843,0.62844 2.28641,15.74374 1.78221,16.24794 -0.2674,0.2674 -3.74935,0.84439 -7.73767,1.2822 -4.96556,0.54508 -7.64142,1.32928 -8.48846,2.48768 -2.57955,3.52774 1.25332,6.48428 8.44076,6.51091 2.02669,0.008 4.72677,0.29268 6.00018,0.63371 2.21816,0.59404 2.2864,0.89754 1.62692,7.23634 -0.3786,3.63897 -0.82749,6.86151 -0.99754,7.16121 -0.17006,0.2997 -3.59919,0.24335 -7.62029,-0.12522 -8.31821,-0.76245 -9.50262,-0.50879 -10.36892,2.22068 -0.94209,2.96827 0.98727,4.49556 8.60018,6.80791 3.92474,1.1921 6.94437,2.67156 6.94437,3.40236 0,1.75285 -3.08117,10.94432 -4.01714,11.98358 -0.41322,0.45883 -3.43538,0.0811 -6.71592,-0.83936 -7.79287,-2.18656 -10.50454,-1.77772 -10.9579,1.65215 -0.31145,2.35631 0.39366,3.05418 6.42054,6.35463 3.72373,2.03919 6.93744,3.86505 7.14157,4.05747 0.31741,0.2992 -5.38298,11.13171 -6.51232,12.37543 -0.21702,0.239 -3.55741,-1.09553 -7.42309,-2.96563 -5.47245,-2.6474 -7.40567,-3.16378 -8.73212,-2.33241 -3.53901,2.2181 -2.53258,4.81002 3.79936,9.78468 3.35172,2.63326 5.95971,5.17155 5.79553,5.64064 -0.54951,1.57002 -9.2878,11.84043 -10.11596,11.88963 -0.44959,0.0267 -3.30334,-1.97645 -6.34166,-4.45145 -5.76809,-4.69865 -6.18119,-4.88225 -8.7591,-3.89301 -2.9142,1.11828 -1.74314,5.38516 3.00253,10.94003 l 4.58433,5.36601 -3.73716,3.29348 c -7.67013,6.75956 -6.95685,6.76867 -13.39875,-0.17124 -5.34331,-5.75638 -5.9278,-6.11776 -7.90144,-4.8852 -2.89458,1.8077 -2.68287,4.21089 0.93585,10.6229 1.68693,2.98908 2.86342,5.95046 2.61443,6.58086 -0.67639,1.71251 -11.88099,7.30434 -12.31533,6.14617 -0.20627,-0.55 -1.8631,-3.475 -3.68185,-6.5 -2.64977,-4.40718 -3.84471,-5.5201 -6.01391,-5.60117 -3.72804,-0.13932 -4.1701,2.5762 -1.71737,10.54947 1.09099,3.54656 1.88535,6.50658 1.76525,6.57781 -2.44778,1.45169 -14.38529,4.79278 -14.38596,4.02636 -0.002,-2.83843 -4.62642,-14.45131 -5.9575,-14.9621 -0.83589,-0.32076 -2.43058,-0.0958 -3.54375,0.49999 -1.86711,0.99925 -1.96998,1.693 -1.32739,8.95222 0.79347,8.96373 1.51436,8.25499 -9.62261,9.4604 -5.26232,0.56957 -5.65801,0.46187 -6.23634,-1.69741 -0.33963,-1.26806 -0.62366,-3.96378 -0.63117,-5.99047 -0.0396,-10.69559 -7.51007,-13.1017 -8.63135,-2.78001 -1.16335,10.70906 -1.26661,10.97637 -4.17761,10.81472 -1.48758,-0.0826 -4.71679,-0.42011 -7.17601,-0.75 z M 158.5,231.11073 c 4.4,-1.1754 12.95,-4.57255 19,-7.54923 20.79123,-10.22957 35.83193,-25.27027 46.0615,-46.0615 8.44157,-17.1572 9.82188,-23.48123 9.82188,-45 0,-21.51877 -1.38031,-27.8428 -9.82188,-45 C 213.33193,66.708766 198.29123,51.668071 177.5,41.438502 c -17.1572,-8.441576 -23.48123,-9.821885 -45,-9.821885 -21.51877,0 -27.8428,1.380309 -45,9.821885 C 66.708766,51.668071 51.668071,66.708766 41.438502,87.5 c -8.441576,17.1572 -9.821885,23.48123 -9.821885,45 0,21.51877 1.380309,27.8428 9.821885,45 13.806449,28.06112 39.030368,47.8592 69.561498,54.59837 11.82157,2.60938 35.9097,2.10853 47.5,-0.98764 z m -33.92857,0.31784 C 123.46878,230.32593 123,227.93939 123,223.42857 123,217.3184 122.88172,217 120.61187,217 113.10481,217 92.25281,208.70358 83.5,202.23424 l -4,-2.95646 -4.707159,4.36111 C 72.203904,206.0375 69.327118,208 68.399984,208 66.494291,208 57,198.92213 57,197.10002 c 0,-0.65214 2.051327,-3.37874 4.558505,-6.05911 l 4.558504,-4.87341 -3.442722,-4.83375 c -1.893498,-2.65856 -4.84072,-7.62529 -6.549384,-11.03716 C 52.808585,163.67453 48,148.34105 48,144.38813 48,142.11828 47.681603,142 41.571429,142 33.149355,142 32,140.85922 32,132.5 32,124.14078 33.149355,123 41.571429,123 47.681603,123 48,122.88172 48,120.61187 48,113.04808 55.850075,93.248482 62.615782,83.747685 64.477102,81.133912 66,78.637739 66,78.200633 66,77.763527 64.2,75.648243 62,73.5 59.773187,71.325575 58,68.63649 58,67.433894 58,65.244101 66.893305,56 69,56 c 0.597125,0 3.291788,2.063554 5.98814,4.585676 l 4.902459,4.585676 4.304701,-2.952731 C 93.78726,55.639195 113.35267,48 120.61187,48 122.88172,48 123,47.681603 123,41.571429 123,33.149355 124.14078,32 132.5,32 c 8.35922,0 9.5,1.149355 9.5,9.571429 C 142,47.681603 142.11828,48 144.38813,48 c 7.51,0 28.36748,8.299898 37.11187,14.768074 l 4,2.958776 5.19014,-4.863425 C 193.54472,58.188541 196.37649,56 196.98298,56 199.04182,56 208,65.230957 208,67.352493 c 0,1.143345 -2.06488,4.175213 -4.58862,6.737484 l -4.58863,4.658676 3.47284,4.875674 c 1.91007,2.68162 4.87084,7.667209 6.57951,11.079087 3.31631,6.622056 8.1249,21.955536 8.1249,25.908456 0,2.26985 0.3184,2.38813 6.42857,2.38813 8.42207,0 9.57143,1.14078 9.57143,9.5 0,8.35922 -1.14936,9.5 -9.57143,9.5 -6.11017,0 -6.42857,0.11828 -6.42857,2.38813 0,7.21125 -7.63574,26.8191 -14.13295,36.29205 -1.57688,2.29909 -2.86705,4.50242 -2.86705,4.89629 0,0.39387 2.025,2.88101 4.5,5.52698 2.475,2.64598 4.5,5.34443 4.5,5.99657 C 209,198.92213 199.50571,208 197.60002,208 c -0.92714,0 -3.87874,-2.05133 -6.55911,-4.5585 l -4.87341,-4.55851 -4.83375,3.44272 c -2.65856,1.8935 -7.62529,4.84072 -11.03716,6.54939 C 163.67453,212.19141 148.34105,217 144.38813,217 142.11828,217 142,217.3184 142,223.42857 142,231.85064 140.85922,233 132.5,233 c -4.44589,0 -6.82959,-0.47245 -7.92857,-1.57143 z M 137,220 c 1.1,-1.1 2,-3.125 2,-4.5 0,-1.375 -0.9,-3.4 -2,-4.5 -1.1,-1.1 -3.125,-2 -4.5,-2 -1.375,0 -3.4,0.9 -4.5,2 -1.1,1.1 -2,3.125 -2,4.5 0,1.375 0.9,3.4 2,4.5 1.1,1.1 3.125,2 4.5,2 1.375,0 3.4,-0.9 4.5,-2 z M 123,184.25938 123,155.51875 103,175.5 c -11,10.98969 -19.99606,20.21047 -19.99125,20.49062 0.019,1.10505 12.25409,8.31356 18.68405,11.008 3.74396,1.56889 9.9572,3.52433 13.8072,4.34543 3.85,0.82109 7.1125,1.52959 7.25,1.57442 0.1375,0.0448 0.25,-12.85175 0.25,-28.65909 z m 32.25108,25.67301 c 6.21284,-1.67294 14.59997,-5.61199 21.4785,-10.08746 l 6.22958,-4.05324 -20.17815,-20.89584 C 151.68303,163.40313 142.46722,154 142.30143,154 142.13564,154 142,167.2169 142,183.37089 l 0,29.3709 4.60116,-0.85959 c 2.53063,-0.47277 6.4231,-1.35019 8.64992,-1.94981 z M 78.363063,195.49408 C 83.6731,190.18405 77.66526,181.43286 71.116059,184.93789 64.925323,188.25107 67.017112,197 74,197 c 1.571429,0 3.534807,-0.67766 4.363063,-1.50592 z m 117.999997,0 c 5.31004,-5.31003 -0.6978,-14.06122 -7.247,-10.55619 C 182.92532,188.25107 185.01711,197 192,197 c 1.57143,0 3.53481,-0.67766 4.36306,-1.50592 z M 90.5,162 l 19.98125,-20 -29.11152,0 -29.111519,0 0.859589,4.60116 c 1.374038,7.35486 2.865674,12.30417 5.514935,18.29877 3.066564,6.93884 9.519956,17.07957 10.876641,17.09132 C 70.064534,181.99606 79.510314,173 90.5,162 z m 109.82305,14.04845 c 5.04402,-7.82921 9.19935,-17.91551 10.93737,-26.54845 l 1.40927,-7 -13.83484,-0.27746 c -7.60917,-0.1526 -20.24735,-0.1526 -28.08485,0 L 156.5,142.5 l 19.46627,19.75 c 10.70645,10.8625 19.70645,19.74606 20,19.74125 0.29355,-0.005 2.2541,-2.67907 4.35678,-5.9428 z M 54,137 c 1.1,-1.1 2,-3.125 2,-4.5 0,-1.375 -0.9,-3.4 -2,-4.5 -1.1,-1.1 -3.125,-2 -4.5,-2 -1.375,0 -3.4,0.9 -4.5,2 -1.1,1.1 -2,3.125 -2,4.5 0,1.375 0.9,3.4 2,4.5 1.1,1.1 3.125,2 4.5,2 1.375,0 3.4,-0.9 4.5,-2 z m 166,0 c 1.1,-1.1 2,-3.125 2,-4.5 0,-1.375 -0.9,-3.4 -2,-4.5 -1.1,-1.1 -3.125,-2 -4.5,-2 -1.375,0 -3.4,0.9 -4.5,2 -1.1,1.1 -2,3.125 -2,4.5 0,1.375 0.9,3.4 2,4.5 1.1,1.1 3.125,2 4.5,2 1.375,0 3.4,-0.9 4.5,-2 z M 91,102.5 C 79.735062,91.225 70.229535,82 69.876606,82 c -1.072578,0 -8.615588,12.139396 -11.246771,18.10007 -2.647224,5.99701 -4.139058,10.94958 -5.512035,18.29877 L 52.258211,123 81.86996,123 111.4817,123 91,102.5 z m 120.8822,15.89884 C 209.70993,106.77127 206.2496,98.11401 199.83162,88.25 197.59503,84.8125 195.70132,82 195.62339,82 195.54546,82 186.26494,91.225 175,102.5 l -20.4817,20.5 29.11174,0 29.11175,0 -0.85959,-4.60116 z M 181.99125,69.009376 C 181.97506,68.06634 170.5493,61.129426 164.89993,58.632735 158.90533,55.983474 153.95602,54.491838 146.60116,53.1178 L 142,52.258211 142,80.869729 142,109.48125 162,89.5 C 173,78.510314 181.99606,69.289534 181.99125,69.009376 z M 123,80.129105 123,52.258211 118.39884,53.1178 C 106.92111,55.262072 92.86275,61.114204 86.5,66.396456 l -3,2.490554 19.49038,19.556495 C 113.71009,99.199577 122.59759,108 122.74038,108 122.88317,108 123,95.458097 123,80.129105 z M 78.685549,77.825686 C 81.53003,75.153436 81.65469,71.654686 79,69 74.75131,64.75131 68,67.573532 68,73.598284 c 0,5.848232 6.305079,8.342639 10.685549,4.227402 z m 117.091941,0.61761 c 2.69664,-1.888798 2.99438,-6.932908 0.56752,-9.614555 C 192.85419,64.971422 185,67.987654 185,73.185549 185,76.024829 188.76363,80 191.45181,80 c 1.15675,0 3.10331,-0.700517 4.32568,-1.556704 z M 137,54 c 1.1,-1.1 2,-3.125 2,-4.5 0,-1.375 -0.9,-3.4 -2,-4.5 -1.1,-1.1 -3.125,-2 -4.5,-2 -1.375,0 -3.4,0.9 -4.5,2 -1.1,1.1 -2,3.125 -2,4.5 0,1.375 0.9,3.4 2,4.5 1.1,1.1 3.125,2 4.5,2 1.375,0 3.4,-0.9 4.5,-2 z"
     id="path3458"
     inkscape:connector-curvature="0" />
</svg>
