<?xml version="1.0" encoding="UTF-8" standalone="no"?>
<!-- Created with Inkscape (http://www.inkscape.org/) -->

<svg
   xmlns:dc="http://purl.org/dc/elements/1.1/"
   xmlns:cc="http://creativecommons.org/ns#"
   xmlns:rdf="http://www.w3.org/1999/02/22-rdf-syntax-ns#"
   xmlns:svg="http://www.w3.org/2000/svg"
   xmlns="http://www.w3.org/2000/svg"
   xmlns:sodipodi="http://sodipodi.sourceforge.net/DTD/sodipodi-0.dtd"
   xmlns:inkscape="http://www.inkscape.org/namespaces/inkscape"
   id="svg3364"
   version="1.1"
   inkscape:version="0.48.3.1 r9886"
   width="500"
   height="500"
   sodipodi:docname="gear-machine-right.png">
  <metadata
     id="metadata3370">
    <rdf:RDF>
      <cc:Work
         rdf:about="">
        <dc:format>image/svg+xml</dc:format>
        <dc:type
           rdf:resource="http://purl.org/dc/dcmitype/StillImage" />
        <dc:title></dc:title>
      </cc:Work>
    </rdf:RDF>
  </metadata>
  <defs
     id="defs3368" />
  <sodipodi:namedview
     pagecolor="#ffffff"
     bordercolor="#666666"
     borderopacity="1"
     objecttolerance="10"
     gridtolerance="10"
     guidetolerance="10"
     inkscape:pageopacity="0"
     inkscape:pageshadow="2"
     inkscape:window-width="1280"
     inkscape:window-height="708"
     id="namedview3366"
     showgrid="false"
     inkscape:zoom="0.472"
     inkscape:cx="250"
     inkscape:cy="250"
     inkscape:window-x="-4"
     inkscape:window-y="-4"
     inkscape:window-maximized="1"
     inkscape:current-layer="svg3364" />
  <path
     style="fill:#455c6f;fill-opacity:1"
     d="M 112.30692,465.05051 C 45.8411,422.7361 3.454304,348.72739 0.309837,269.5 l -0.595338,-15 17.53756,0.29375 c 19.947169,0.33411 18.688506,-0.31737 18.752606,9.70625 0.01759,2.75 0.691059,9.63662 1.496605,15.30359 4.07014,28.63321 13.60877,55.54245 28.62274,80.74701 6.60517,11.08838 6.31614,10.92503 11.74187,6.63614 l 2.36589,-1.87016 -6.27491,-10.38799 C 57.69458,328.00667 48.0404,297.09487 45.43085,263.59092 l -0.69391,-8.90908 9.28516,0.65908 C 59.12893,255.70341 67.02472,256 71.5683,256 l 8.26106,0 0.6694,7.75 c 1.63757,18.95879 7.40504,40.54885 15.44582,57.82015 4.46956,9.60043 11.84083,22.42985 12.8873,22.42985 0.40902,0 2.22837,-1.23948 4.04301,-2.75441 l 3.29933,-2.75441 -4.27383,-6.99559 C 106.26229,322.26693 99.57884,307.01927 96.43415,296.21088 93.47022,286.02375 90,266.70971 90,260.40063 L 90,256 l 10.75,0.007 c 5.9125,0.004 13.70368,0.28615 17.31374,0.62721 l 6.56374,0.6201 1.15686,9.15949 c 0.63628,5.03772 2.32029,13.19297 3.74225,18.12279 2.47563,8.58283 10.57695,26.8119 13.74114,30.91942 1.48488,1.92757 1.5595,1.92028 5.11218,-0.5 1.98292,-1.35086 3.49329,-2.68112 3.35638,-2.95612 -10.50668,-21.10468 -12.4876,-26.2302 -15.15314,-39.20784 C 135.71242,268.55285 135,263.26535 135,261.04216 L 135,257 l 10.40965,0 10.40965,0 1.21184,7.25 c 2.74808,16.44064 9.55683,31.76547 19.88222,44.75 6.69949,8.42483 18.32627,18.25009 27.18166,22.96996 3.24774,1.73103 5.90498,3.39821 5.90498,3.70486 0,1.51959 -86.43613,135.31844 -87.39087,135.27675 -0.61002,-0.0266 -5.24602,-2.68211 -10.30221,-5.90106 z M 365.42145,454.3086 c -9.70326,-15.04976 -10.58566,-16.79551 -8.97184,-17.75 17.53159,-10.369 36.66064,-25.5339 49.53441,-39.26931 7.82463,-8.34833 23.03004,-27.57164 23.0036,-29.08211 C 428.97623,367.55659 422.53844,363 421.63063,363 c -0.21858,0 -3.2573,3.9375 -6.7527,8.75 C 407.31281,382.1657 389.4649,400.84428 379,409.29774 371.66506,415.22285 351.3089,429 349.88933,429 c -0.6894,0 -17.44758,-25.68525 -18.43209,-28.25083 -0.29007,-0.75591 2.76127,-3.1992 7.66664,-6.13888 10.73328,-6.43221 26.01761,-18.8052 34.35771,-27.81327 C 380.63782,359.06763 392,344.46016 392,342.98935 c 0,-0.48816 -1.62036,-2.12348 -3.6008,-3.63403 -3.27523,-2.49814 -3.68746,-2.59161 -4.55926,-1.0338 -3.28656,5.87276 -14.28245,18.84461 -23.15407,27.31485 -9.93861,9.48896 -19.42981,16.7395 -30.26169,23.11757 l -5.07581,2.98876 -9.17419,-14.39757 C 311.12838,369.42646 307,362.58159 307,362.13429 c 0,-0.44729 1.2375,-1.37334 2.75,-2.05789 11.87669,-5.3753 32.22103,-23.14314 41.65093,-36.37606 5.30838,-7.44921 5.32672,-7.28853 -1.23995,-10.86106 -1.97829,-1.07627 -2.47604,-1.02769 -3.22746,0.31503 -6.90962,12.34681 -27.80768,31.56802 -42.59807,39.18001 l -3.16455,1.62867 -5.93031,-9.2315 -5.9303,-9.23149 5.8964,-3.16877 c 25.11073,-13.4947 42.86909,-38.80786 47.76217,-68.08123 l 1.21184,-7.25 14.65965,-0.0963 c 8.06281,-0.053 43.1867,-0.61545 78.05309,-1.25 l 63.39344,-1.15372 -0.61321,14 c -2.37748,54.27921 -22.80013,107.24544 -57.25844,148.5 -9.61717,11.51398 -26.87334,27.96441 -38.46273,36.6668 C 394.81574,460.52753 378.487,471 376.92648,471 c -0.40883,0 -5.58609,-7.51113 -11.50503,-16.6914 z M 232.94218,302.71272 c -14.24098,-4.85494 -26.0004,-14.87579 -32.33907,-27.55793 -4.51688,-9.03719 -6.06751,-15.98503 -5.94885,-26.65479 0.17364,-15.61238 5.85441,-28.13382 17.8583,-39.36287 9.95915,-9.31629 24.32153,-15.1024 37.48744,-15.1024 13.16591,0 27.52829,5.78611 37.48744,15.1024 12.00389,11.22905 17.68466,23.75049 17.8583,39.36287 0.11866,10.66976 -1.43197,17.6176 -5.94885,26.65479 -6.33867,12.68214 -18.09809,22.70299 -32.33907,27.55793 -5.15052,1.75588 -8.81111,2.23565 -17.05782,2.23565 -8.24671,0 -11.9073,-0.47977 -17.05782,-2.23565 z M 303,172.35301 c -5.95519,-4.33694 -21.10929,-11.23993 -29.5,-13.43784 -17.76668,-4.6539 -39.52057,-3.40289 -56.81726,3.26742 -4.32658,1.66851 -8.23409,2.64749 -8.68336,2.17553 C 206.79616,163.09411 135,30.079812 135,29.114645 135,27.85813 155.25447,18.63703 167.02272,14.535905 229.267,-7.1556532 297.76928,-3.6779743 355.99461,24.129506 370.05768,30.845802 384,38.763193 384,40.032855 c 0,0.686523 -15.5284,28.674482 -16.53267,29.798026 -0.16267,0.181984 -4.09849,-1.957789 -8.74628,-4.755052 C 341.88896,54.945466 319.03956,45.731728 299.30359,41.116478 288.00353,38.473962 271.28805,36.04288 264.25,36.01832 L 259,36 l 0,4.428044 0,4.428043 5.75,0.606262 c 27.98714,2.950872 44.48873,7.01721 66.70542,16.437612 C 342.85593,66.734046 362,77.406024 362,78.927223 c 0,0.634723 -15.07831,27.845707 -16.55694,29.879367 -0.1226,0.16863 -3.30994,-1.59231 -7.08299,-3.91319 C 317.59658,92.121327 289.85163,82.907171 265.25,80.613394 l -6.25,-0.582729 0,4.800875 0,4.800875 9.75,1.145722 c 21.36133,2.51017 46.15149,10.878843 63.07219,21.291923 4.4978,2.76797 8.17781,5.3256 8.17781,5.68363 0,0.72148 -14.75965,27.04652 -16.22412,28.93703 -0.68159,0.87988 -2.27378,0.32753 -6.09913,-2.11589 -13.63218,-8.70748 -30.51937,-15.31645 -46.06212,-18.02688 C 258.56472,124.27224 259,124.15804 259,129.85754 l 0,4.85755 6.20416,0.64846 c 8.27136,0.86453 20.5341,4.21557 30.09979,8.22538 C 302.75117,146.7107 318,155.52125 318,156.70237 c 0,1.14283 -10.17523,18.29582 -10.82515,18.24859 -0.37117,-0.027 -2.24985,-1.19605 -4.17485,-2.59795 z"
     id="path3374"
     inkscape:connector-curvature="0" />
</svg>
