<?xml version="1.0" encoding="UTF-8" standalone="no"?>
<!-- Created with Inkscape (http://www.inkscape.org/) -->

<svg
   xmlns:dc="http://purl.org/dc/elements/1.1/"
   xmlns:cc="http://creativecommons.org/ns#"
   xmlns:rdf="http://www.w3.org/1999/02/22-rdf-syntax-ns#"
   xmlns:svg="http://www.w3.org/2000/svg"
   xmlns="http://www.w3.org/2000/svg"
   xmlns:sodipodi="http://sodipodi.sourceforge.net/DTD/sodipodi-0.dtd"
   xmlns:inkscape="http://www.inkscape.org/namespaces/inkscape"
   width="255"
   height="56"
   id="svg2"
   version="1.1"
   inkscape:version="0.48.5 r10040"
   sodipodi:docname="logo.svg">
  <defs
     id="defs4" />
  <sodipodi:namedview
     id="base"
     pagecolor="#ffffff"
     bordercolor="#666666"
     borderopacity="1.0"
     inkscape:pageopacity="0.0"
     inkscape:pageshadow="2"
     inkscape:zoom="4"
     inkscape:cx="214.98214"
     inkscape:cy="46.126632"
     inkscape:document-units="px"
     inkscape:current-layer="layer1"
     showgrid="false"
     fit-margin-top="0"
     fit-margin-left="0"
     fit-margin-right="0"
     fit-margin-bottom="0"
     inkscape:window-width="1366"
     inkscape:window-height="705"
     inkscape:window-x="-8"
     inkscape:window-y="-8"
     inkscape:window-maximized="1" />
  <metadata
     id="metadata7">
    <rdf:RDF>
      <cc:Work
         rdf:about="">
        <dc:format>image/svg+xml</dc:format>
        <dc:type
           rdf:resource="http://purl.org/dc/dcmitype/StillImage" />
        <dc:title></dc:title>
      </cc:Work>
    </rdf:RDF>
  </metadata>
  <g
     inkscape:label="Layer 1"
     inkscape:groupmode="layer"
     id="layer1"
     transform="translate(-206.78572,-475.79074)">
    <text
       xml:space="preserve"
       style="font-size:31.54322624px;font-style:normal;font-variant:normal;font-weight:normal;font-stretch:normal;line-height:100%;letter-spacing:0px;word-spacing:0px;fill:#ff6600;fill-opacity:1;stroke:none;font-family:Klavika Regular;-inkscape-font-specification:Klavika Regular"
       x="396.64746"
       y="-177.09482"
       id="text2996"
       sodipodi:linespacing="100%"
       transform="matrix(1,0,-0.12183317,1,0,0)"><tspan
         sodipodi:role="line"
         id="tspan2998"
         x="396.64746"
         y="-177.09482"
         style="font-style:normal;font-variant:normal;font-weight:normal;font-stretch:normal;fill:#ff6600;fill-opacity:1;font-family:ChunkFive Ex;-inkscape-font-specification:ChunkFive Ex">BOOTSBUTT</tspan></text>
    <text
       transform="matrix(1,0,-0.12183317,1,0,0)"
       sodipodi:linespacing="100%"
       id="text3000"
       y="-157.54379"
       x="396.00116"
       style="font-size:30.88359451px;font-style:normal;font-variant:normal;font-weight:normal;font-stretch:normal;line-height:100%;letter-spacing:0px;word-spacing:0px;fill:#79a027;fill-opacity:1;stroke:none;font-family:Klavika Regular;-inkscape-font-specification:Klavika Regular"
       xml:space="preserve"><tspan
         style="font-size:24.47719955px;font-style:normal;font-variant:normal;font-weight:normal;font-stretch:normal;fill:#79a027;fill-opacity:1;font-family:ChunkFive Ex;-inkscape-font-specification:ChunkFive Ex"
         y="-157.54379"
         x="396.00116"
         id="tspan3002"
         sodipodi:role="line">GENERATOR</tspan></text>
    <path
       style="font-size:36.14769745px;font-style:normal;font-variant:normal;font-weight:bold;font-stretch:normal;line-height:100%;letter-spacing:-3.68000007px;word-spacing:0px;fill:#333333;fill-opacity:1;stroke:none;font-family:Swis721 Lt BT;-inkscape-font-specification:Swis721 Lt BT Bold"
       d="M 108.6875 3.90625 C 105.46411 3.90628 102.8531 4.65601 100.8125 6.15625 C 100.39162 6.46569 99.99977 6.80252 99.65625 7.15625 L 99.875 4.59375 L 77.96875 4.59375 L 77.53125 9.5625 C 77.16104 8.87987 76.73004 8.24263 76.21875 7.65625 C 74.05094 5.17017 70.92497 3.93753 66.875 3.9375 C 62.83308 3.93753 59.54492 5.17752 56.96875 7.65625 C 55.3218 9.24093 54.12012 11.16797 53.375 13.46875 C 53.02237 11.18675 52.19167 9.23797 50.8125 7.65625 C 48.64469 5.17017 45.51872 3.93753 41.46875 3.9375 C 37.42683 3.93753 34.13866 5.17752 31.5625 7.65625 C 28.98632 10.13503 27.49463 13.48786 27.125 17.71875 C 27.0738 18.30426 27.0656 18.85434 27.0625 19.40625 C 26.95464 19.19428 26.82566 18.97643 26.6875 18.78125 C 25.94381 17.73071 24.91858 17.09417 23.5625 16.875 C 24.791 16.61835 25.77595 16.01783 26.53125 15.0625 C 27.2865 14.1072 27.71792 12.90873 27.84375 11.46875 C 28.04669 9.14556 27.46102 7.41199 26.0625 6.28125 C 24.66393 5.15056 22.43068 4.59378 19.375 4.59375 L 6.625 4.59375 L 4.3125 30.78125 L 14.6875 30.78125 C 17.0813 30.78125 18.8594 30.68865 20.03125 30.5 C 21.20307 30.31136 22.22654 29.98722 23.09375 29.53125 C 24.3998 28.85834 25.42739 27.9311 26.21875 26.71875 C 26.87475 25.71371 27.32991 24.59855 27.53125 23.40625 C 27.97412 25.08394 28.71056 26.54279 29.78125 27.78125 C 31.92262 30.25817 35.01691 31.5 39.0625 31.5 C 43.11615 31.5 46.46232 30.26516 49.0625 27.78125 C 50.70318 26.21392 51.90404 24.28978 52.65625 22.03125 C 53.00526 24.30421 53.83151 26.21279 55.1875 27.78125 C 57.32887 30.25817 60.42316 31.5 64.46875 31.5 C 68.5224 31.5 71.86857 30.26516 74.46875 27.78125 C 77.06888 25.29735 78.53755 21.93864 78.90625 17.71875 C 79.15042 14.9237 78.83915 12.50347 77.96875 10.46875 L 84.75 10.46875 L 82.96875 30.78125 L 90.28125 30.78125 L 92.03125 10.46875 L 97.71875 10.46875 C 97.56011 11.01987 97.45966 11.60737 97.40625 12.21875 C 97.26014 13.89113 97.64464 15.34427 98.53125 16.59375 C 99.41785 17.84325 100.78341 18.83701 102.625 19.59375 C 103.86346 20.10709 105.37055 20.64955 107.15625 21.1875 C 108.94192 21.72547 110.03129 22.09813 110.46875 22.34375 C 110.69353 22.46437 110.87958 22.67422 111 22.9375 C 111.12039 23.20079 111.15492 23.50105 111.125 23.84375 C 111.0664 24.51447 110.70015 25.05398 110.03125 25.4375 C 109.36232 25.82103 108.40646 26.00001 107.15625 26 C 105.70377 26.00001 104.64448 25.6663 103.96875 25 C 103.293 24.33371 103.0059 23.21132 103.09375 21.625 L 96.0625 21.625 C 95.9655 25.05062 96.74246 27.54531 98.40625 29.125 C 100.07003 30.7047 102.61004 31.5 106.03125 31.5 C 109.62747 31.5 112.52958 30.75615 114.6875 29.28125 C 116.55806 28.00273 117.70192 26.2869 118.125 24.125 L 117.53125 30.78125 L 127.875 30.78125 C 130.2688 30.78125 132.0469 30.68865 133.21875 30.5 C 134.39057 30.31136 135.41404 29.98722 136.28125 29.53125 C 137.5873 28.85834 138.64614 27.9311 139.4375 26.71875 C 140.22881 25.5064 140.68275 24.14108 140.8125 22.65625 C 140.94676 21.11922 140.64989 19.83182 139.90625 18.78125 C 139.16256 17.73071 138.10608 17.09417 136.75 16.875 C 137.9785 16.61835 138.96345 16.01783 139.71875 15.0625 C 140.474 14.1072 140.93667 12.90873 141.0625 11.46875 C 141.26544 9.14556 140.64852 7.41199 139.25 6.28125 C 137.85143 5.15056 135.61818 4.59378 132.5625 4.59375 L 119.8125 4.59375 L 118.28125 22.21875 C 118.26575 21.4059 118.11524 20.64432 117.84375 19.9375 C 117.47704 18.98293 116.94257 18.21813 116.21875 17.65625 C 115.35257 16.83773 113.4175 15.9241 110.375 14.90625 L 109.875 14.75 C 109.58149 14.6581 109.17159 14.52689 108.625 14.34375 C 105.76223 13.39801 104.38412 12.43733 104.46875 11.46875 C 104.51655 10.92161 104.83323 10.46957 105.4375 10.09375 C 106.04175 9.71797 106.81783 9.53127 107.78125 9.53125 C 108.99542 9.53127 109.8889 9.77567 110.46875 10.28125 C 111.04857 10.78688 111.3675 11.69243 111.40625 13 L 118.28125 13 C 118.53547 10.08994 117.80327 7.85913 116.0625 6.28125 C 114.32168 4.70342 111.85717 3.90628 108.6875 3.90625 z M 40.9375 10.03125 C 42.78708 10.03127 44.17158 10.69023 45.0625 12 C 45.95338 13.30981 46.28177 15.20875 46.0625 17.71875 C 45.84223 20.2398 45.18172 22.16485 44.0625 23.46875 C 42.94324 24.77267 41.44333 25.40626 39.59375 25.40625 C 37.75076 25.40626 36.40869 24.76826 35.53125 23.46875 C 34.65378 22.16926 34.31022 20.24863 34.53125 17.71875 C 34.75201 15.19184 35.42509 13.27011 36.53125 11.96875 C 37.63739 10.66743 39.09745 10.03127 40.9375 10.03125 z M 66.34375 10.03125 C 68.19333 10.03127 69.57783 10.69023 70.46875 12 C 71.35963 13.30981 71.68802 15.20875 71.46875 17.71875 C 71.24848 20.2398 70.58797 22.16485 69.46875 23.46875 C 68.34949 24.77267 66.84958 25.40626 65 25.40625 C 63.15701 25.40626 61.81494 24.76826 60.9375 23.46875 C 60.06003 22.16926 59.71647 20.24863 59.9375 17.71875 C 60.15826 15.19184 60.83134 13.27011 61.9375 11.96875 C 63.04364 10.66743 64.5037 10.03127 66.34375 10.03125 z M 13.125 10.4375 L 18.25 10.4375 C 19.14059 10.43752 19.78772 10.60143 20.1875 10.9375 C 20.58724 11.27361 20.77656 11.77564 20.71875 12.4375 C 20.65585 13.15677 20.36535 13.68378 19.875 14.03125 C 19.38461 14.37876 18.6384 14.56252 17.625 14.5625 L 12.75 14.5625 L 13.125 10.4375 z M 126.3125 10.4375 L 131.46875 10.4375 C 132.35933 10.43752 133.00647 10.60143 133.40625 10.9375 C 133.80599 11.27361 133.96406 11.77564 133.90625 12.4375 C 133.84335 13.15677 133.55285 13.68378 133.0625 14.03125 C 132.57211 14.37876 131.8259 14.56252 130.8125 14.5625 L 125.96875 14.5625 L 126.3125 10.4375 z M 12.28125 20.09375 L 17.46875 20.09375 C 18.54466 20.09376 19.33272 20.28229 19.8125 20.6875 C 20.29225 21.09273 20.50841 21.71935 20.4375 22.53125 C 20.3578 23.44319 20.03777 24.09626 19.46875 24.46875 C 18.8997 24.84125 17.87782 25.00001 16.40625 25 L 11.84375 25 L 12.28125 20.09375 z M 125.46875 20.09375 L 130.6875 20.09375 C 131.76341 20.09376 132.55147 20.28229 133.03125 20.6875 C 133.511 21.09273 133.69591 21.71935 133.625 22.53125 C 133.5453 23.44319 133.22527 24.09626 132.65625 24.46875 C 132.0872 24.84125 131.06532 25.00001 129.59375 25 L 125.0625 25 L 125.46875 20.09375 z "
       transform="translate(206.78572,475.79074)"
       id="path3268" />
    <path
       style="font-size:36.14769745px;font-style:normal;font-variant:normal;font-weight:bold;font-stretch:normal;line-height:100%;letter-spacing:-3.68000007px;word-spacing:0px;fill:#333333;fill-opacity:1;stroke:none;font-family:Swis721 Lt BT;-inkscape-font-specification:Swis721 Lt BT Bold"
       d="m 349.17144,480.38449 -1.375,15.5 c -0.18794,2.15113 -0.10791,3.86742 0.21875,5.1875 0.32666,1.32009 0.96861,2.47153 1.90625,3.40625 0.95068,0.93694 2.09761,1.62161 3.4375,2.09375 1.33987,0.47214 2.86843,0.71875 4.59375,0.71875 1.72162,0 3.29672,-0.24661 4.71875,-0.71875 1.42199,-0.47214 2.66683,-1.15681 3.78125,-2.09375 1.08741,-0.92296 1.92004,-2.0527 2.46875,-3.375 0.54866,-1.32229 0.90515,-3.06026 1.09375,-5.21875 l 0.84375,-9.625 6.0625,0 -1.75,20.3125 7.28125,0 1.78125,-20.3125 7.3125,0 4.03125,0 -1.78125,20.3125 7.28125,0 1.78125,-20.3125 4.78125,0 2.25,-5.875 -17.84375,0 -20.65625,0 -7.28125,0 -1.40625,16.28125 c -0.14606,1.67163 -0.57065,2.83261 -1.21875,3.5 -0.64814,0.66741 -1.64278,1.00001 -3.03125,1 -1.41571,10e-6 -2.40254,-0.33443 -2.9375,-1 -0.53499,-0.66555 -0.74012,-1.82469 -0.59375,-3.5 l 1.4375,-16.28125 -7.1875,0 z"
       id="path3266" />
    <g
       transform="matrix(1,0,-0.03806916,1,0,0)"
       style="font-size:39.75363922px;font-style:normal;font-variant:normal;font-weight:bold;font-stretch:normal;line-height:100%;letter-spacing:-3.36000013px;word-spacing:0px;fill:#333333;fill-opacity:1;stroke:none;font-family:Swis721 BT;-inkscape-font-specification:Swis721 BT Bold"
       id="text3120">
      <path
         id="path3378"
         style="font-size:31.50727081px;fill:#333333;font-family:Swis721 BT;-inkscape-font-specification:Swis721 BT Bold"
         d="m 383.07165,518.4063 5.47685,0 c 1.18972,10e-6 2.06406,-0.24101 2.62304,-0.72307 0.55896,-0.48203 0.83844,-1.24099 0.83846,-2.27689 -2e-5,-0.98459 -0.27181,-1.73073 -0.81538,-2.23843 -0.5436,-0.50767 -1.35384,-0.76151 -2.43074,-0.76153 l -5.69223,0 z m -4.66147,12.75367 0,-22.66123 10.98447,0 c 2.47174,2e-5 4.30248,0.52822 5.49223,1.58459 1.18971,1.05642 1.78457,2.67178 1.78459,4.84609 -2e-5,1.38461 -0.28976,2.53844 -0.86922,3.46149 -0.5795,0.92308 -1.41282,1.55384 -2.49996,1.89229 0.98458,0.34872 1.68457,0.88205 2.09997,1.59997 0.41536,0.71795 0.65381,1.83588 0.71537,3.35381 l 0.0923,2.67688 c -2e-5,0.0205 -2e-5,0.0513 0,0.0923 0.0307,1.35383 0.32305,2.17433 0.87691,2.4615 l 0,0.6923 -5.10762,0 c -0.16412,-0.31794 -0.28976,-0.71024 -0.37692,-1.1769 -0.0872,-0.46666 -0.14104,-1.02307 -0.16154,-1.66921 l -0.0615,-2.38459 c -0.0513,-1.4051 -0.31539,-2.3538 -0.79229,-2.84611 -0.47693,-0.49229 -1.3359,-0.73844 -2.57689,-0.73845 l -4.9384,0 0,8.81526 z m -17.73203,-11.30754 c 0,2.49229 0.55383,4.42815 1.66152,5.80762 1.10767,1.37947 2.65636,2.0692 4.64609,2.0692 2.01022,0 3.5743,-0.68973 4.69224,-2.0692 1.11792,-1.37947 1.67689,-3.31533 1.67691,-5.80762 -2e-5,-2.49226 -0.55899,-4.42813 -1.67691,-5.80761 -1.11794,-1.37945 -2.68202,-2.06919 -4.69224,-2.06921 -1.98973,2e-5 -3.53842,0.68719 -4.64609,2.06152 -1.10769,1.37435 -1.66152,3.31279 -1.66152,5.8153 z m -4.75378,0 c 0,-3.66147 0.99742,-6.56656 2.99227,-8.71527 1.99484,-2.14866 4.68454,-3.22301 8.06912,-3.22303 3.38455,2e-5 6.07939,1.07693 8.08451,3.23073 2.00508,2.15383 3.00763,5.05635 3.00765,8.70757 -2e-5,3.65124 -1.00257,6.55377 -3.00765,8.70758 -2.00512,2.15382 -4.69996,3.23072 -8.08451,3.23072 -3.38458,0 -6.07428,-1.0769 -8.06912,-3.23072 -1.99485,-2.15381 -2.99227,-5.05634 -2.99227,-8.70758 z m -9.6706,11.30754 0,-18.61513 -6.72298,0 0,-4.0461 18.06129,0 0,4.0461 -6.67683,0 0,18.61513 z m -14.50129,-18.12283 -3.13842,9.64602 6.29222,0 z m -2.70766,-4.5384 5.38454,0 8.16913,22.66123 -4.89225,0 -1.53844,-4.66147 -8.78449,0 -1.49229,4.66147 -4.90763,0 z m -20.2243,9.90756 5.47685,0 c 1.18972,10e-6 2.06406,-0.24101 2.62305,-0.72307 0.55895,-0.48203 0.83843,-1.24099 0.83845,-2.27689 -2e-5,-0.98459 -0.27181,-1.73073 -0.81538,-2.23843 -0.54359,-0.50767 -1.35384,-0.76151 -2.43073,-0.76153 l -5.69224,0 z m -4.66147,12.75367 0,-22.66123 10.98447,0 c 2.47174,2e-5 4.30249,0.52822 5.49223,1.58459 1.18971,1.05642 1.78457,2.67178 1.78459,4.84609 -2e-5,1.38461 -0.28976,2.53844 -0.86922,3.46149 -0.5795,0.92308 -1.41282,1.55384 -2.49996,1.89229 0.98458,0.34872 1.68457,0.88205 2.09997,1.59997 0.41536,0.71795 0.65382,1.83588 0.71537,3.35381 l 0.0923,2.67688 c -2e-5,0.0205 -2e-5,0.0513 0,0.0923 0.0307,1.35383 0.32305,2.17433 0.87691,2.4615 l 0,0.6923 -5.10762,0 c -0.16412,-0.31794 -0.28976,-0.71024 -0.37692,-1.1769 -0.0872,-0.46666 -0.14104,-1.02307 -0.16154,-1.66921 l -0.0615,-2.38459 c -0.0513,-1.4051 -0.3154,-2.3538 -0.7923,-2.84611 -0.47693,-0.49229 -1.33589,-0.73844 -2.57689,-0.73845 l -4.9384,0 0,8.81526 z m -17.19358,0 0,-22.66123 16.44594,0 0,3.93841 -11.846,0 0,4.8307 10.83063,0 0,3.87687 -10.83063,0 0,5.83069 12.39984,0 0,4.18456 z m -20.0243,0 0,-22.66123 4.87686,0 9.19988,15.56902 0,-15.56902 4.59993,0 0,22.66123 -4.81532,0 -9.26141,-15.56902 0,15.56902 z m -17.19357,0 0,-22.66123 16.44593,0 0,3.93841 -11.84599,0 0,4.8307 10.83062,0 0,3.87687 -10.83062,0 0,5.83069 12.39983,0 0,4.18456 z m -4.8245,-2.67688 c -0.84104,1.13844 -1.79743,1.97433 -2.8692,2.50765 -1.07179,0.53333 -2.33075,0.79999 -3.77687,0.79999 -3.1692,0 -5.73583,-1.09998 -7.6999,-3.29995 -1.96407,-2.19997 -2.94611,-5.08967 -2.94611,-8.66912 0,-3.61019 0.97947,-6.49733 2.93842,-8.66142 1.95894,-2.16405 4.56916,-3.24609 7.83067,-3.24611 2.84097,2e-5 5.15888,0.6795 6.95375,2.03843 1.79483,1.35898 2.86148,3.22818 3.19996,5.60762 l -4.75379,0 c -0.28719,-1.17945 -0.87436,-2.07688 -1.76151,-2.69227 -0.88718,-0.61536 -2.04358,-0.92305 -3.46919,-0.92306 -1.89742,1e-5 -3.38714,0.69488 -4.46917,2.08458 -1.08204,1.38974 -1.62306,3.31023 -1.62305,5.76146 -1e-5,2.46152 0.56409,4.3897 1.69228,5.78454 1.12818,1.39486 2.67688,2.09229 4.64609,2.09228 1.47689,10e-6 2.71277,-0.43589 3.70765,-1.30767 0.99484,-0.87178 1.61021,-2.06663 1.84613,-3.58457 l -5.1384,0 0,-3.87687 9.38449,0 0,12.26137 -3.12303,0 z" />
    </g>
    <g
       transform="matrix(1,0,-0.08736536,1,0,0)"
       style="font-size:36.14769745px;font-style:normal;font-variant:normal;font-weight:bold;font-stretch:normal;line-height:100%;letter-spacing:-3.68000007px;word-spacing:0px;fill:#333333;fill-opacity:1;stroke:none;font-family:Swis721 Lt BT;-inkscape-font-specification:Swis721 Lt BT Bold"
       id="text3124">
      <path
         style="fill:#333333;font-family:Swis721 Hv BT;-inkscape-font-specification:Swis721 Hv BT Bold"
         d="m 479.34214,506.58041 0,-26.19737 7.67896,0 4.91559,8.55816 c 0.78101,1.35394 1.5282,2.70951 2.24158,4.06673 0.71335,1.35724 1.13291,2.61169 1.25869,3.76336 -0.0927,-1.68338 -0.162,-3.36916 -0.20795,-5.05734 -0.046,-1.68816 -0.069,-3.1728 -0.0689,-4.45393 l 0,-6.87698 7.07554,0 0,26.19737 -7.67234,0 -5.10092,-8.78871 c -0.57953,-0.99944 -1.20427,-2.11067 -1.87424,-3.33369 -0.66998,-1.22301 -1.17522,-2.55854 -1.51571,-4.00661 0.12207,1.39806 0.21308,2.84207 0.27303,4.33203 0.0599,1.48999 0.0899,2.74352 0.0899,3.76061 l 0,8.03637 z"
         id="path3326" />
    </g>
    <path
       style="font-size:36.14769745px;font-style:normal;font-variant:normal;font-weight:bold;font-stretch:normal;line-height:100%;letter-spacing:-3.68000007px;word-spacing:0px;fill:#ff6600;fill-opacity:1;stroke:none;font-family:Swis721 Lt BT;-inkscape-font-specification:Swis721 Lt BT Bold"
       d="m 348.54644,479.38449 -1.34375,15.5 c -0.18794,2.15113 -0.10791,3.86742 0.21875,5.1875 0.32666,1.32009 0.93736,2.47153 1.875,3.40625 0.95068,0.93694 2.09761,1.62161 3.4375,2.09375 1.33987,0.47214 2.89968,0.71875 4.625,0.71875 1.72162,0 3.26547,-0.24661 4.6875,-0.71875 1.42199,-0.47214 2.69808,-1.15681 3.8125,-2.09375 1.08741,-0.92296 1.92004,-2.0527 2.46875,-3.375 0.54866,-1.32229 0.90515,-3.06026 1.09375,-5.21875 l 0.84375,-9.625 6.0625,0 -1.78125,20.3125 7.3125,0 1.78125,-20.3125 7.28125,0 4.03125,0 -1.78125,20.3125 7.3125,0 1.78125,-20.3125 4.9375,0 2.28125,-5.875 -18.03125,0 -20.6875,0 -7.25,0 -1.4375,16.28125 c -0.14606,1.67163 -0.5394,2.83261 -1.1875,3.5 -0.64814,0.66741 -1.64278,1.00001 -3.03125,1 -1.41571,10e-6 -2.40254,-0.33443 -2.9375,-1 -0.53499,-0.66555 -0.74012,-1.82469 -0.59375,-3.5 l 1.4375,-16.28125 -7.21875,0 z"
       id="path3282" />
    <path
       style="font-size:36.14769745px;font-style:normal;font-variant:normal;font-weight:bold;font-stretch:normal;line-height:100%;letter-spacing:-3.68000007px;word-spacing:0px;fill:#ff6600;fill-opacity:1;stroke:none;font-family:Swis721 Lt BT;-inkscape-font-specification:Swis721 Lt BT Bold"
       d="M 108.09375 2.90625 C 104.87036 2.90628 102.2281 3.65601 100.1875 5.15625 C 99.75387 5.47506 99.38276 5.82167 99.03125 6.1875 L 99.25 3.59375 L 77.34375 3.59375 L 76.90625 8.5625 C 76.53761 7.88518 76.13281 7.23864 75.625 6.65625 C 73.45719 4.17017 70.33122 2.93753 66.28125 2.9375 C 62.23933 2.93753 58.95117 4.17752 56.375 6.65625 C 54.75616 8.21389 53.52879 10.09425 52.78125 12.34375 C 52.41706 10.11412 51.5736 8.21008 50.21875 6.65625 C 48.05094 4.17017 44.92497 2.93753 40.875 2.9375 C 36.83308 2.93753 33.51366 4.17752 30.9375 6.65625 C 28.36132 9.13503 26.90088 12.48786 26.53125 16.71875 C 26.47815 17.32677 26.47005 17.89697 26.46875 18.46875 C 26.35403 18.23565 26.24458 17.99434 26.09375 17.78125 C 25.35006 16.73071 24.29358 16.09417 22.9375 15.875 C 24.166 15.61835 25.1822 15.01783 25.9375 14.0625 C 26.69275 13.1072 27.12417 11.90873 27.25 10.46875 C 27.45294 8.14556 26.86727 6.41199 25.46875 5.28125 C 24.07018 4.15056 21.83693 3.59378 18.78125 3.59375 L 6 3.59375 L 3.71875 29.78125 L 14.09375 29.78125 C 16.48755 29.78125 18.26565 29.68865 19.4375 29.5 C 20.60932 29.31136 21.63279 28.98722 22.5 28.53125 C 23.80605 27.85834 24.83364 26.9311 25.625 25.71875 C 26.281 24.71371 26.70491 23.59855 26.90625 22.40625 C 27.34912 24.08394 28.11681 25.54279 29.1875 26.78125 C 31.32887 29.25817 34.42316 30.5 38.46875 30.5 C 42.5224 30.5 45.83732 29.26516 48.4375 26.78125 C 50.07821 25.21389 51.31029 23.28984 52.0625 21.03125 C 52.41151 23.30421 53.23776 25.21279 54.59375 26.78125 C 56.73512 29.25817 59.82941 30.5 63.875 30.5 C 67.92865 30.5 71.27482 29.26516 73.875 26.78125 C 76.47513 24.29735 77.9438 20.93864 78.3125 16.71875 C 78.55667 13.9237 78.2454 11.50347 77.375 9.46875 L 84.15625 9.46875 L 82.375 29.78125 L 89.65625 29.78125 L 91.4375 9.46875 L 97.15625 9.46875 C 96.99646 10.02201 96.86615 10.60471 96.8125 11.21875 C 96.66639 12.89113 97.01964 14.34427 97.90625 15.59375 C 98.79285 16.84325 100.15841 17.83701 102 18.59375 C 103.23846 19.10709 104.74555 19.64955 106.53125 20.1875 C 108.31692 20.72547 109.43754 21.09813 109.875 21.34375 C 110.09978 21.46437 110.28583 21.67422 110.40625 21.9375 C 110.52664 22.20079 110.56117 22.50105 110.53125 22.84375 C 110.47265 23.51447 110.1064 24.05398 109.4375 24.4375 C 108.76857 24.82103 107.81271 25.00001 106.5625 25 C 105.11002 25.00001 104.05073 24.6663 103.375 24 C 102.69925 23.33371 102.41215 22.21132 102.5 20.625 L 95.46875 20.625 C 95.37175 24.05062 96.14871 26.54531 97.8125 28.125 C 99.47628 29.7047 102.01629 30.5 105.4375 30.5 C 109.03372 30.5 111.90458 29.75615 114.0625 28.28125 C 115.93306 27.00273 117.10817 25.2869 117.53125 23.125 L 116.9375 29.78125 L 127.28125 29.78125 C 129.67505 29.78125 131.45315 29.68865 132.625 29.5 C 133.79682 29.31136 134.82029 28.98722 135.6875 28.53125 C 136.99355 27.85834 138.05239 26.9311 138.84375 25.71875 C 139.63506 24.5064 140.089 23.14108 140.21875 21.65625 C 140.35301 20.11922 140.05614 18.83182 139.3125 17.78125 C 138.56881 16.73071 137.51233 16.09417 136.15625 15.875 C 137.38475 15.61835 138.3697 15.01783 139.125 14.0625 C 139.88025 13.1072 140.31167 11.90873 140.4375 10.46875 C 140.64044 8.14556 140.05477 6.41199 138.65625 5.28125 C 137.25768 4.15056 135.02443 3.59378 131.96875 3.59375 L 119.21875 3.59375 L 117.6875 21.21875 C 117.672 20.4059 117.52149 19.64432 117.25 18.9375 C 116.88329 17.98293 116.34882 17.21813 115.625 16.65625 C 114.75882 15.83773 112.7925 14.9241 109.75 13.90625 L 109.28125 13.75 C 108.98774 13.6581 108.57784 13.52689 108.03125 13.34375 C 105.16848 12.39801 103.79037 11.43733 103.875 10.46875 C 103.9228 9.92161 104.23948 9.46957 104.84375 9.09375 C 105.448 8.71797 106.22408 8.53127 107.1875 8.53125 C 108.40167 8.53127 109.29515 8.77567 109.875 9.28125 C 110.45482 9.78688 110.77375 10.69243 110.8125 12 L 117.6875 12 C 117.94172 9.08994 117.20952 6.85913 115.46875 5.28125 C 113.72793 3.70342 111.26342 2.90628 108.09375 2.90625 z M 40.34375 9.03125 C 42.19333 9.03127 43.57783 9.69023 44.46875 11 C 45.35963 12.30981 45.68802 14.20875 45.46875 16.71875 C 45.24848 19.2398 44.58797 21.16485 43.46875 22.46875 C 42.34949 23.77267 40.84958 24.40626 39 24.40625 C 37.15701 24.40626 35.81494 23.76826 34.9375 22.46875 C 34.06003 21.16926 33.71647 19.24863 33.9375 16.71875 C 34.15826 14.19184 34.83134 12.27011 35.9375 10.96875 C 37.04364 9.66743 38.5037 9.03127 40.34375 9.03125 z M 65.75 9.03125 C 67.59958 9.03127 68.98408 9.69023 69.875 11 C 70.76588 12.30981 71.09427 14.20875 70.875 16.71875 C 70.65473 19.2398 69.99422 21.16485 68.875 22.46875 C 67.75574 23.77267 66.25583 24.40626 64.40625 24.40625 C 62.56326 24.40626 61.22119 23.76826 60.34375 22.46875 C 59.46628 21.16926 59.12272 19.24863 59.34375 16.71875 C 59.56451 14.19184 60.23759 12.27011 61.34375 10.96875 C 62.44989 9.66743 63.90995 9.03127 65.75 9.03125 z M 12.53125 9.4375 L 17.65625 9.4375 C 18.54684 9.43752 19.19397 9.60143 19.59375 9.9375 C 19.99349 10.27361 20.15155 10.77564 20.09375 11.4375 C 20.03085 12.15677 19.7716 12.68378 19.28125 13.03125 C 18.79086 13.37876 18.04465 13.56252 17.03125 13.5625 L 12.15625 13.5625 L 12.53125 9.4375 z M 125.71875 9.4375 L 130.84375 9.4375 C 131.73433 9.43752 132.38147 9.60143 132.78125 9.9375 C 133.18099 10.27361 133.37031 10.77564 133.3125 11.4375 C 133.2496 12.15677 132.9591 12.68378 132.46875 13.03125 C 131.97836 13.37876 131.23215 13.56252 130.21875 13.5625 L 125.375 13.5625 L 125.71875 9.4375 z M 11.6875 19.09375 L 16.875 19.09375 C 17.95091 19.09376 18.73897 19.28229 19.21875 19.6875 C 19.6985 20.09273 19.91465 20.71935 19.84375 21.53125 C 19.76405 22.44319 19.41277 23.09626 18.84375 23.46875 C 18.2747 23.84125 17.25282 24.00001 15.78125 24 L 11.25 24 L 11.6875 19.09375 z M 124.875 19.09375 L 130.09375 19.09375 C 131.16966 19.09376 131.92647 19.28229 132.40625 19.6875 C 132.886 20.09273 133.10216 20.71935 133.03125 21.53125 C 132.95155 22.44319 132.63152 23.09626 132.0625 23.46875 C 131.49345 23.84125 130.47157 24.00001 129 24 L 124.4375 24 L 124.875 19.09375 z "
       transform="translate(206.78572,475.79074)"
       id="path3284" />
    <g
       transform="matrix(1,0,-0.03806916,1,0,0)"
       style="font-size:39.75363922px;font-style:normal;font-variant:normal;font-weight:bold;font-stretch:normal;line-height:100%;letter-spacing:-3.36000013px;word-spacing:0px;fill:#79a027;fill-opacity:1;stroke:none;font-family:Swis721 BT;-inkscape-font-specification:Swis721 BT Bold"
       id="text3000-4">
      <path
         id="path3407"
         style="font-size:31.50727081px;fill:#79a027;font-family:Swis721 BT;-inkscape-font-specification:Swis721 BT Bold"
         d="m 382.43312,517.40636 5.47685,0 c 1.18971,1e-5 2.06406,-0.24101 2.62304,-0.72307 0.55895,-0.48203 0.83843,-1.24099 0.83845,-2.27689 -2e-5,-0.98459 -0.27181,-1.73073 -0.81537,-2.23843 -0.5436,-0.50767 -1.35384,-0.76151 -2.43074,-0.76153 l -5.69223,0 z m -4.66148,12.75367 0,-22.66123 10.98447,0 c 2.47175,2e-5 4.30249,0.52822 5.49224,1.58459 1.1897,1.05642 1.78457,2.67178 1.78459,4.84609 -2e-5,1.38461 -0.28976,2.53844 -0.86922,3.46149 -0.5795,0.92308 -1.41282,1.55384 -2.49997,1.89229 0.98459,0.34872 1.68457,0.88205 2.09997,1.59998 0.41536,0.71794 0.65382,1.83588 0.71538,3.3538 l 0.0923,2.67688 c -2e-5,0.0205 -2e-5,0.0513 0,0.0923 0.0308,1.35383 0.32306,2.17433 0.87692,2.46151 l 0,0.69229 -5.10763,0 c -0.16411,-0.31794 -0.28975,-0.71024 -0.37692,-1.1769 -0.0872,-0.46666 -0.14104,-1.02306 -0.16153,-1.66921 l -0.0615,-2.38459 c -0.0513,-1.4051 -0.3154,-2.3538 -0.7923,-2.84611 -0.47693,-0.49229 -1.33589,-0.73844 -2.57689,-0.73845 l -4.93839,0 0,8.81526 z m -17.73202,-11.30754 c -1e-5,2.49229 0.55383,4.42816 1.66151,5.80762 1.10767,1.37947 2.65637,2.0692 4.6461,2.0692 2.01021,0 3.57429,-0.68973 4.69224,-2.0692 1.11792,-1.37946 1.67688,-3.31533 1.6769,-5.80762 -2e-5,-2.49226 -0.55898,-4.42813 -1.6769,-5.80761 -1.11795,-1.37945 -2.68203,-2.06919 -4.69224,-2.0692 -1.98973,10e-6 -3.53843,0.68718 -4.6461,2.06151 -1.10768,1.37435 -1.66152,3.31279 -1.66151,5.8153 z m -4.75379,0 c 0,-3.66147 0.99743,-6.56656 2.99227,-8.71526 1.99484,-2.14867 4.68455,-3.22302 8.06913,-3.22304 3.38455,2e-5 6.07938,1.07693 8.0845,3.23073 2.00508,2.15383 3.00763,5.05635 3.00765,8.70757 -2e-5,3.65124 -1.00257,6.55377 -3.00765,8.70758 -2.00512,2.15382 -4.69995,3.23072 -8.0845,3.23072 -3.38458,0 -6.07429,-1.0769 -8.06913,-3.23072 -1.99484,-2.15381 -2.99227,-5.05634 -2.99227,-8.70758 z m -9.67059,11.30754 0,-18.61513 -6.72299,0 0,-4.0461 18.0613,0 0,4.0461 -6.67683,0 0,18.61513 z m -14.5013,-18.12283 -3.13842,9.64602 6.29223,0 z m -2.70765,-4.5384 5.38454,0 8.16912,22.66123 -4.89224,0 -1.53844,-4.66147 -8.7845,0 -1.49229,4.66147 -4.90762,0 z m -20.2243,9.90756 5.47685,0 c 1.18971,1e-5 2.06406,-0.24101 2.62304,-0.72307 0.55895,-0.48203 0.83844,-1.24099 0.83845,-2.27689 -1e-5,-0.98459 -0.27181,-1.73073 -0.81537,-2.23843 -0.5436,-0.50767 -1.35384,-0.76151 -2.43074,-0.76153 l -5.69223,0 z m -4.66148,12.75367 0,-22.66123 10.98447,0 c 2.47175,2e-5 4.30249,0.52822 5.49224,1.58459 1.1897,1.05642 1.78457,2.67178 1.78459,4.84609 -2e-5,1.38461 -0.28976,2.53844 -0.86922,3.46149 -0.5795,0.92308 -1.41282,1.55384 -2.49997,1.89229 0.98459,0.34872 1.68458,0.88205 2.09997,1.59998 0.41536,0.71794 0.65382,1.83588 0.71538,3.3538 l 0.0923,2.67688 c -2e-5,0.0205 -2e-5,0.0513 0,0.0923 0.0307,1.35383 0.32305,2.17433 0.87691,2.46151 l 0,0.69229 -5.10763,0 c -0.16411,-0.31794 -0.28975,-0.71024 -0.37692,-1.1769 -0.0872,-0.46666 -0.14103,-1.02306 -0.16153,-1.66921 l -0.0615,-2.38459 c -0.0513,-1.4051 -0.31539,-2.3538 -0.7923,-2.84611 -0.47693,-0.49229 -1.33589,-0.73844 -2.57689,-0.73845 l -4.93839,0 0,8.81526 z m -17.19357,0 0,-22.66123 16.44593,0 0,3.93841 -11.84599,0 0,4.8307 10.83062,0 0,3.87687 -10.83062,0 0,5.83069 12.39983,0 0,4.18456 z m -20.0243,0 0,-22.66123 4.87685,0 9.19988,15.56902 0,-15.56902 4.59994,0 0,22.66123 -4.81532,0 -9.26141,-15.56902 0,15.56902 z m -17.19357,0 0,-22.66123 16.44593,0 0,3.93841 -11.846,0 0,4.8307 10.83063,0 0,3.87687 -10.83063,0 0,5.83069 12.39984,0 0,4.18456 z m -4.82451,-2.67688 c -0.84103,1.13844 -1.79743,1.97433 -2.86919,2.50766 -1.0718,0.53332 -2.33075,0.79998 -3.77687,0.79998 -3.1692,0 -5.73583,-1.09998 -7.6999,-3.29995 -1.96408,-2.19997 -2.94612,-5.08967 -2.94612,-8.66912 0,-3.61019 0.97948,-6.49733 2.93843,-8.66142 1.95894,-2.16405 4.56916,-3.24609 7.83066,-3.24611 2.84097,2e-5 5.15889,0.6795 6.95375,2.03844 1.79483,1.35897 2.86148,3.22818 3.19996,5.60761 l -4.75378,0 c -0.28719,-1.17945 -0.87436,-2.07687 -1.76152,-2.69227 -0.88718,-0.61536 -2.04357,-0.92304 -3.46918,-0.92306 -1.89742,2e-5 -3.38714,0.69488 -4.46917,2.08458 -1.08204,1.38974 -1.62306,3.31023 -1.62306,5.76147 0,2.46151 0.56409,4.38969 1.69229,5.78453 1.12818,1.39486 2.67688,2.09229 4.64609,2.09228 1.47689,10e-6 2.71277,-0.43588 3.70764,-1.30767 0.99484,-0.87178 1.61022,-2.06663 1.84613,-3.58457 l -5.13839,0 0,-3.87687 9.38449,0 0,12.26137 -3.12304,0 z" />
    </g>
    <g
       transform="matrix(1,0,-0.08736536,1,0,0)"
       style="font-size:36.14769745px;font-style:normal;font-variant:normal;font-weight:bold;font-stretch:normal;line-height:100%;letter-spacing:-3.68000007px;word-spacing:0px;fill:#ff6600;fill-opacity:1;stroke:none;font-family:Swis721 Lt BT;-inkscape-font-specification:Swis721 Lt BT Bold"
       id="text3079">
      <path
         id="path3432"
         style="fill:#ff6600;font-family:Swis721 Hv BT;-inkscape-font-specification:Swis721 Hv BT Bold"
         d="m 478.65428,505.58047 0,-26.19737 7.67895,0 4.9156,8.55816 c 0.781,1.35394 1.5282,2.70951 2.24158,4.06673 0.71334,1.35724 1.1329,2.61169 1.25868,3.76336 -0.0927,-1.68338 -0.162,-3.36916 -0.20794,-5.05734 -0.046,-1.68816 -0.069,-3.1728 -0.069,-4.45393 l 0,-6.87698 7.07554,0 0,26.19737 -7.67234,0 -5.10092,-8.78871 c -0.57953,-0.99944 -1.20427,-2.11067 -1.87423,-3.33369 -0.66999,-1.223 -1.17522,-2.55854 -1.51572,-4.00661 0.12207,1.39806 0.21308,2.84207 0.27303,4.33203 0.0599,1.48999 0.0899,2.74352 0.0899,3.76061 l 0,8.03637 z" />
    </g>
  </g>
</svg>
