<?xml version="1.0" encoding="UTF-8" standalone="no"?>
<!-- Created with Inkscape (http://www.inkscape.org/) -->

<svg
   xmlns:dc="http://purl.org/dc/elements/1.1/"
   xmlns:cc="http://creativecommons.org/ns#"
   xmlns:rdf="http://www.w3.org/1999/02/22-rdf-syntax-ns#"
   xmlns:svg="http://www.w3.org/2000/svg"
   xmlns="http://www.w3.org/2000/svg"
   xmlns:sodipodi="http://sodipodi.sourceforge.net/DTD/sodipodi-0.dtd"
   xmlns:inkscape="http://www.inkscape.org/namespaces/inkscape"
   id="svg3316"
   version="1.1"
   inkscape:version="0.48.3.1 r9886"
   width="500"
   height="735"
   sodipodi:docname="machine-right.svg">
  <metadata
     id="metadata3322">
    <rdf:RDF>
      <cc:Work
         rdf:about="">
        <dc:format>image/svg+xml</dc:format>
        <dc:type
           rdf:resource="http://purl.org/dc/dcmitype/StillImage" />
        <dc:title></dc:title>
      </cc:Work>
    </rdf:RDF>
  </metadata>
  <defs
     id="defs3320" />
  <sodipodi:namedview
     pagecolor="#ffffff"
     bordercolor="#666666"
     borderopacity="1"
     objecttolerance="10"
     gridtolerance="10"
     guidetolerance="10"
     inkscape:pageopacity="0"
     inkscape:pageshadow="2"
     inkscape:window-width="1280"
     inkscape:window-height="708"
     id="namedview3318"
     showgrid="false"
     inkscape:zoom="1.8163505"
     inkscape:cx="391.15406"
     inkscape:cy="478.05262"
     inkscape:window-x="-4"
     inkscape:window-y="-4"
     inkscape:window-maximized="1"
     inkscape:current-layer="svg3316" />
  <path
     style="fill:#455c6f;fill-opacity:1"
     d="M 0,458.51425 0,182.02849 31.25,181.76425 62.5,181.5 63,168.5 c 0.55915,-14.53786 1.381,-16.70745 7.85347,-20.73239 3.61446,-2.24766 4.00926,-2.27018 44.88483,-2.5593 26.47083,-0.18724 42.62815,0.0825 45.11945,0.75339 9.08065,2.44516 13.07812,9.00061 13.13394,21.5383 0.0196,4.4 0.30696,9.0125 0.6386,10.25 l 0.60297,2.25 57.66087,0 c 49.6777,0 57.95784,-0.20802 59.80593,-1.50247 1.98178,-1.38809 2.17,-2.52803 2.47251,-14.97508 C 295.63459,144.51193 294.27344,145.5 320,145.5 c 26.03291,0 24.5,-1.22181 24.5,19.52778 l 0,14.97222 17.5,0.0174 17.5,0.0174 29.9347,24.96454 c 16.46408,13.7305 30.07861,24.82062 30.25451,24.64473 0.17589,-0.1759 -0.18807,-1.77673 -0.80882,-3.5574 -0.64855,-1.86043 -0.93512,-6.58025 -0.67372,-11.09592 0.38652,-6.67682 0.87752,-8.41241 3.26566,-11.54341 4.10402,-5.38066 9.76595,-7.58006 17.66407,-6.86167 13.79744,1.25496 15.20076,3.10187 15.70116,20.66427 l 0.36329,12.75 3.71807,0 c 5.79463,0 13.76633,2.78475 17.59517,6.14652 L 500,239.20718 500,456.5 l 0,217.29282 -3.5348,3.10359 c -1.94413,1.70697 -3.63163,3.20368 -3.75,3.326 -0.11836,0.12233 -26.5402,0.45983 -58.7152,0.75 l -58.5,0.52759 -6,2.91787 c -8.36711,4.06902 -17.97938,14.03678 -22.74135,23.5824 C 342.65094,716.23437 340,725.33795 340,731.2101 L 340,735 170,735 0,735 0,458.51425 z m 279.29947,151.50222 c 15.05598,-2.93848 27.1978,-7.085 41.20053,-14.07026 44.26739,-22.08279 74.78764,-62.519 84.67883,-112.19081 3.19041,-16.02167 3.19041,-41.48913 0,-57.5108 -3.11213,-15.62856 -7.23076,-27.7086 -14.23262,-41.7446 -22.08279,-44.26739 -62.519,-74.78764 -112.19081,-84.67883 -16.02167,-3.19041 -41.48913,-3.19041 -57.5108,0 -15.62856,3.11213 -27.7086,7.23076 -41.7446,14.23262 -44.26739,22.08279 -74.78764,62.519 -84.678827,112.19081 -3.19041,16.02167 -3.19041,41.48913 0,57.5108 3.11213,15.62856 7.230757,27.7086 14.232617,41.7446 22.0089,44.11928 63.44175,75.44448 111.69081,84.44355 14.80185,2.76074 16.76049,2.90925 33.2554,2.52151 9.35494,-0.21991 18.33199,-1.08874 25.29947,-2.44859 z M 450,171 l 0,-19 16.5,0 16.5,0 0,-75.999996 L 483,0 l 7.5,0 7.5,0 0,83.500004 0,83.499996 -16.5,0 -16.5,0 0,11.5 0,11.5 -7.5,0 -7.5,0 0,-19 z M 75,91.617651 75,43.2353 79.11765,39.11765 83.235293,35 129.11765,35 175,35 175,17.5 175,0 l 42.54369,0 42.54368,0 -0.29368,49.75 c -0.32181,54.514 -0.0743,52.2579 -6.43005,58.61364 -6.28304,6.28303 -4.89432,6.10815 -51.11364,6.43659 L 160,115.10046 160,127.55023 160,140 117.5,140 75,140 75,91.617651 z M 300.22036,95.027019 300.5,50.05403 l 2.27549,-2.27701 c 2.19266,-2.19414 3.00252,-2.28824 22.25,-2.5853 L 345,44.88343 345,22.44172 345,0 l 17.53478,0 17.53479,0 -0.28479,37.47324 -0.28478,37.47324 -2.27549,2.276762 c -2.19257,2.193805 -3.00328,2.287995 -22.25,2.585048 L 335,80.116577 335,110.05829 335,140 l -17.52964,0 -17.52965,0 0.27965,-44.972981 z"
     id="path3326"
     inkscape:connector-curvature="0" />
  <rect
     style="fill:#455c6f;fill-opacity:1"
     id="rect3359"
     width="26.426619"
     height="33.033272"
     x="474.578"
     y="229.04039" />
</svg>
