<?xml version="1.0" encoding="UTF-8" standalone="no"?>
<!-- Created with Inkscape (http://www.inkscape.org/) -->

<svg
   xmlns:dc="http://purl.org/dc/elements/1.1/"
   xmlns:cc="http://creativecommons.org/ns#"
   xmlns:rdf="http://www.w3.org/1999/02/22-rdf-syntax-ns#"
   xmlns:svg="http://www.w3.org/2000/svg"
   xmlns="http://www.w3.org/2000/svg"
   xmlns:sodipodi="http://sodipodi.sourceforge.net/DTD/sodipodi-0.dtd"
   xmlns:inkscape="http://www.inkscape.org/namespaces/inkscape"
   id="svg3460"
   version="1.1"
   inkscape:version="0.48.3.1 r9886"
   width="500"
   height="735"
   sodipodi:docname="machine-left.png">
  <metadata
     id="metadata3466">
    <rdf:RDF>
      <cc:Work
         rdf:about="">
        <dc:format>image/svg+xml</dc:format>
        <dc:type
           rdf:resource="http://purl.org/dc/dcmitype/StillImage" />
        <dc:title></dc:title>
      </cc:Work>
    </rdf:RDF>
  </metadata>
  <defs
     id="defs3464" />
  <sodipodi:namedview
     pagecolor="#ffffff"
     bordercolor="#666666"
     borderopacity="1"
     objecttolerance="10"
     gridtolerance="10"
     guidetolerance="10"
     inkscape:pageopacity="0"
     inkscape:pageshadow="2"
     inkscape:window-width="1280"
     inkscape:window-height="708"
     id="namedview3462"
     showgrid="false"
     inkscape:zoom="0.32108844"
     inkscape:cx="250"
     inkscape:cy="367.5"
     inkscape:window-x="-4"
     inkscape:window-y="-4"
     inkscape:window-maximized="1"
     inkscape:current-layer="svg3460" />
  <path
     style="fill:#455c6f;fill-opacity:1"
     d="m 260,731.06538 c 0,-5.72604 -2.43548,-16.40069 -5.97148,-26.1729 -6.14184,-16.97382 -17.19063,-31.93909 -27.09424,-36.69837 L 222.36854,666 116.11853,666 C 39.53696,666 9.2586,665.68665 7.68425,664.87781 6.48291,664.26061 4.2625,662.60142 2.75,661.19072 L 0,658.62582 0,491.4165 0,324.20718 3.4859,321.14652 C 10.13124,315.31183 12.95684,315 59.1815,315 l 41.8185,0 0,-10.59887 c 0,-12.54791 1.35205,-16.28122 7.33025,-20.24037 l 4.01767,-2.66076 24.78921,-0.31308 c 28.21564,-0.35636 31.01083,0.20731 36.46087,7.35269 2.69088,3.52793 2.90557,4.49298 3.25216,14.61884 L 177.22124,314 l 21.81186,0 21.81184,0 44.32752,-20.84522 L 309.5,272.30955 309.76019,227.15478 310.02038,182 l 15.48981,0 15.48981,0 0.022,-11.25 c 0.0246,-12.57847 1.56566,-17.70727 6.48296,-21.57521 4.95577,-3.89821 9.11444,-4.29393 41.79646,-3.97717 30.42413,0.29487 31.28914,0.35867 34.84515,2.56999 6.47248,4.02494 7.29432,6.19453 7.85347,20.73239 l 0.5,13 33.75,0.2633 33.75,0.2633 0,276.4867 0,276.4867 -120,0 -120.00001,0 0,-3.93462 z m 167.63161,-37.45551 c 7.73297,-2.05905 17.21382,-7.51218 22.85336,-13.14464 5.88263,-5.87525 11.78441,-16.59318 13.54212,-24.59315 1.52696,-6.94976 0.82804,-20.90875 -1.32043,-26.37208 -0.86515,-2.2 -16.37931,-46.3 -34.47589,-98 C 403.14914,459.84448 395.1827,435.9549 394.7171,431 c -1.21054,-12.88283 -7.74428,-28.98894 -16.23746,-40.02646 -9.42844,-12.25296 -22.90044,-21.71409 -38.83172,-27.27077 -8.76434,-3.05692 -9.79786,-3.19071 -24.64792,-3.19071 -14.85006,0 -15.88358,0.13379 -24.64792,3.19071 -12.93841,4.51279 -22.48302,10.45056 -31.84088,19.80843 -9.41834,9.41833 -15.36524,19.01444 -19.73245,31.84088 -2.62385,7.70622 -3.18566,11.06597 -3.56481,21.3184 -0.54741,14.80223 1.19489,23.98473 6.86351,36.17304 6.292,13.52864 11.29467,19.79573 26.06785,32.65648 2.13704,1.8604 22.3817,33.57939 53.29391,83.5 27.41629,44.275 51.2148,82.69151 52.88557,85.37003 4.93634,7.91377 16.85558,16.18159 27.67522,19.197 6.08029,1.69456 19.34514,1.71673 25.63161,0.0428 z M 322.89674,579.9544 c -22.88179,-36.54992 -41.5568,-66.52283 -41.5,-66.60646 0.0568,-0.0836 4.15326,1.26328 9.10326,2.99313 8.5969,3.00431 9.69423,3.14521 24.5,3.14602 14.9554,8.2e-4 15.83379,-0.11521 25,-3.30231 26.723,-9.29161 45.88699,-29.94658 52.90208,-57.01791 l 1.64113,-6.33314 25.90904,75.33314 c 14.24997,41.43322 26.13518,75.98496 26.41156,76.78165 0.35167,1.01368 -0.37801,0.82773 -2.43064,-0.61941 -8.90818,-6.28043 -18.47617,-9.30537 -29.43317,-9.30537 -26.8719,0 -48.33969,20.47342 -50.25858,47.93066 -0.21627,3.09451 -4.57576,-3.469 -41.84468,-63 z M 110,230.03676 110,185.07353 62.20465,184.78676 C 9.67454,184.47159 11.45975,184.683 7.26392,178.28056 5.61791,175.76889 5.48187,169.72031 5.22879,87.79449 L 4.95759,3.0000001e-6 l 27.5212,0 27.52121,0 L 60,64.96324 l 0,64.96323 47.79534,0.28677 c 52.52982,0.31517 50.74465,0.10377 54.94072,6.50592 1.63423,2.49343 1.78429,7.67609 2.04083,70.48608 l 0.2769,67.79476 -27.5269,0 -27.5269,0 0,-44.96324 z M 350,120.01609 350,100.03218 232.20571,99.76609 C 121.61114,99.51627 114.24692,99.39219 111.71965,97.73608 105.343,93.55747 105.52841,95.0515 105.21147,45.29546 L 104.92294,3.0000001e-6 l 35.03852,0 35.03854,0 L 175,14.983914 l 0,14.983906 117.79428,0.26609 c 110.59458,0.24983 117.9588,0.37391 120.48607,2.03002 6.42629,4.21113 6.19125,2.13557 6.5048,57.44083 L 420.07031,140 385.03515,140 350,140 l 0,-19.98391 z"
     id="path3470"
     inkscape:connector-curvature="0" />
</svg>
