<?xml version="1.0" encoding="UTF-8" standalone="no"?>
<!-- Created with Inkscape (http://www.inkscape.org/) -->

<svg
   xmlns:dc="http://purl.org/dc/elements/1.1/"
   xmlns:cc="http://creativecommons.org/ns#"
   xmlns:rdf="http://www.w3.org/1999/02/22-rdf-syntax-ns#"
   xmlns:svg="http://www.w3.org/2000/svg"
   xmlns="http://www.w3.org/2000/svg"
   xmlns:sodipodi="http://sodipodi.sourceforge.net/DTD/sodipodi-0.dtd"
   xmlns:inkscape="http://www.inkscape.org/namespaces/inkscape"
   id="svg3812"
   version="1.1"
   inkscape:version="0.48.3.1 r9886"
   width="500"
   height="500"
   sodipodi:docname="o3.png">
  <metadata
     id="metadata3818">
    <rdf:RDF>
      <cc:Work
         rdf:about="">
        <dc:format>image/svg+xml</dc:format>
        <dc:type
           rdf:resource="http://purl.org/dc/dcmitype/StillImage" />
        <dc:title></dc:title>
      </cc:Work>
    </rdf:RDF>
  </metadata>
  <defs
     id="defs3816" />
  <sodipodi:namedview
     pagecolor="#ffffff"
     bordercolor="#666666"
     borderopacity="1"
     objecttolerance="10"
     gridtolerance="10"
     guidetolerance="10"
     inkscape:pageopacity="0"
     inkscape:pageshadow="2"
     inkscape:window-width="1280"
     inkscape:window-height="708"
     id="namedview3814"
     showgrid="false"
     inkscape:zoom="0.472"
     inkscape:cx="250"
     inkscape:cy="250"
     inkscape:window-x="-4"
     inkscape:window-y="-4"
     inkscape:window-maximized="1"
     inkscape:current-layer="svg3812" />
  <path
     style="fill:#ff6600"
     d="m 236.5,468.3037 c -14.07784,-1.26736 -46.5,-7.7775 -46.5,-9.33689 0,-0.4766 1.30868,-2.80564 2.90817,-5.17564 4.59608,-6.8101 7.28743,-16.08896 7.3361,-25.29237 0.0529,-10.01178 -2.01552,-17.28761 -7.19132,-25.29558 C 189.10448,397.09417 188.97449,397 184.49026,397 c -9.92857,0 -23.70843,6.89672 -31.52691,15.77897 -4.93032,5.60115 -9.75842,15.44674 -10.60553,21.62711 -0.34632,2.52665 -1.062,4.59392 -1.59041,4.59392 -1.15097,0 -16.33655,-9.81704 -22.72665,-14.69212 C 101.95343,412.03465 88.648625,398.49108 76.324162,381.84261 69.962478,373.24895 59,356.24911 59,354.97751 c 0,-0.39451 2.656196,-1.23987 5.902658,-1.87858 13.817105,-2.71835 26.114664,-12.28495 32.562484,-25.33122 2.247243,-4.54699 3.855708,-9.47631 4.208938,-12.89876 l 0.57171,-5.53934 -6.110168,-4.08021 C 87.228923,299.30174 81.276774,297.54776 70,297.54776 c -10.836559,0 -16.667739,1.60788 -25.088972,6.918 -6.469374,4.07935 -5.811114,4.98272 -9.380625,-12.87366 -4.812991,-24.07686 -5.42854,-47.78963 -1.884385,-72.5921 1.512647,-10.58571 4.701515,-25.68087 5.618911,-26.59826 0.272609,-0.27261 2.581255,0.9119 5.130324,2.63225 9.458025,6.38314 22.222125,9.03625 33.604747,6.98497 7.10955,-1.28122 16.857789,-5.67103 21.381568,-9.62852 2.671422,-2.33701 2.837402,-2.89381 2.275882,-7.63493 -0.33313,-2.81275 -2.185494,-8.44071 -4.116367,-12.50658 -6.14174,-12.93276 -18.528477,-22.57751 -32.65498,-25.42632 l -6.613897,-1.33378 5.613897,-9.15053 C 82.735495,105.61422 105.984,81.85098 134.26708,64.39905 l 7.23292,-4.46304 0.66693,4.282 c 1.53975,9.88581 7.65515,20.90167 15.18847,27.35945 6.62798,5.68169 17.11866,10.36903 24.79458,11.07846 l 6.64997,0.61461 3.6016,-5.4244 c 10.54971,-15.88902 10.56799,-37.71729 0.0439,-52.4808 L 188.97727,40.5 199.73864,37.887252 c 14.72234,-3.574433 38.27838,-6.887963 48.93749,-6.883835 13.07559,0.0051 30.22871,1.784117 44.2292,4.587275 6.82293,1.366078 12.98711,2.80936 13.69817,3.207293 0.97743,0.546997 0.58214,1.781745 -1.62022,5.060985 -5.44429,8.10635 -7.30845,14.60673 -7.35326,25.64103 -0.0467,11.51302 1.77619,17.75336 7.86651,26.92881 4.19799,6.32454 5.42806,6.66031 14.57197,3.97773 16.46561,-4.83057 29.63869,-19.26397 32.95185,-36.10447 l 1.20366,-6.11809 5.138,3.0108 c 7.65215,4.48407 19.52211,12.61063 24.77677,16.96299 C 386.69011,80.271 389.25089,82 389.82941,82 c 1.58994,0 23.04483,21.52741 29.43114,29.53061 7.11299,8.91387 19.73945,27.48653 19.73945,29.03538 0,0.64823 -2.1325,1.45933 -4.75,1.80667 -10.55487,1.40064 -23.63615,10.32055 -30.24959,20.6267 -3.91077,6.0944 -7.00041,15.6327 -7.00041,21.61154 0,4.31783 0.15476,4.53274 5.97114,8.29205 15.60684,10.08719 38.40159,9.44025 52.74086,-1.49685 l 3.29638,-2.51427 0.93885,2.46936 c 0.83796,2.20402 4.39221,19.67705 7.04599,34.63881 3.44491,19.42208 1.29295,49.56351 -5.42604,76 -2.49452,9.81489 -2.14663,9.42255 -5.8502,6.5977 -15.38192,-11.73236 -40.04796,-11.73548 -55.42479,-0.007 -2.85947,2.18102 -3.29219,3.10001 -3.29219,6.99173 0,9.85707 6.92418,23.65991 15.77897,31.45421 5.60115,4.93032 15.44674,9.75842 21.62711,10.60553 2.52665,0.34632 4.59392,1.062 4.59392,1.59041 0,1.15097 -9.81704,16.33655 -14.69212,22.72665 -12.27323,16.08733 -25.8168,29.39213 -42.46527,41.7166 C 373.0633,430.17496 356.23958,441 354.9183,441 c -0.42708,0 -1.30666,-2.5875 -1.95464,-5.75 -1.77854,-8.68037 -5.53875,-15.7226 -12.19377,-22.83684 -7.18943,-7.68552 -17.33403,-13.20305 -25.90094,-14.08724 l -5.53934,-0.57171 -4.08021,6.11017 c -5.94766,8.9067 -7.70164,14.85885 -7.70164,26.13562 0,10.83656 1.60788,16.66774 6.918,25.08897 3.3929,5.38075 3.39974,5.4157 1.22312,6.24502 -1.20389,0.45869 -7.58888,1.88907 -14.18888,3.17862 -18.29188,3.57399 -40.44764,5.10116 -55,3.79109 z m 35.11463,-94.85165 c 11.98177,-2.08945 24.91995,-6.55443 36.42099,-12.56893 60.61869,-31.70072 84.4971,-106.36409 53.5942,-167.57913 -17.57055,-34.80523 -51.62177,-60.23517 -89.50119,-66.84079 -10.77941,-1.87977 -33.47785,-1.87977 -44.25726,0 -44.93957,7.83681 -83.51149,41.68968 -97.26576,85.36586 C 126.69449,224.24868 125,235.78716 125,250 c 0,20.94781 3.97582,38.03958 13.02649,56 17.88034,35.48229 51.12809,60.42801 89.89524,67.44821 10.50781,1.90282 32.79212,1.90478 43.6929,0.004 z M 229.43205,330.55713 C 192.41466,320.98619 167,288.19323 167,250 c 0,-46.17734 36.82266,-83 83,-83 46.17734,0 83,36.82266 83,83 0,32.1946 -17.49675,60.1495 -46.92204,74.9683 -16.02778,8.0717 -38.47656,10.28655 -56.64591,5.58883 z m 31.43196,-54.14478 c 8.70791,-3.63839 15.20271,-11.59977 17.16191,-21.03721 3.08385,-14.8548 -7.28449,-30.21103 -22.53588,-33.37721 -19.42908,-4.03346 -37.52557,14.06303 -33.49211,33.49211 3.63837,17.52592 22.58474,27.72509 38.86608,20.92231 z"
     id="path3822"
     inkscape:connector-curvature="0" />
</svg>
