<?xml version="1.0" encoding="UTF-8" standalone="no"?>
<!-- Created with Inkscape (http://www.inkscape.org/) -->

<svg
   xmlns:dc="http://purl.org/dc/elements/1.1/"
   xmlns:cc="http://creativecommons.org/ns#"
   xmlns:rdf="http://www.w3.org/1999/02/22-rdf-syntax-ns#"
   xmlns:svg="http://www.w3.org/2000/svg"
   xmlns="http://www.w3.org/2000/svg"
   xmlns:sodipodi="http://sodipodi.sourceforge.net/DTD/sodipodi-0.dtd"
   xmlns:inkscape="http://www.inkscape.org/namespaces/inkscape"
   id="svg3424"
   version="1.1"
   inkscape:version="0.48.3.1 r9886"
   width="750"
   height="176"
   sodipodi:docname="pista.png">
  <metadata
     id="metadata3430">
    <rdf:RDF>
      <cc:Work
         rdf:about="">
        <dc:format>image/svg+xml</dc:format>
        <dc:type
           rdf:resource="http://purl.org/dc/dcmitype/StillImage" />
        <dc:title></dc:title>
      </cc:Work>
    </rdf:RDF>
  </metadata>
  <defs
     id="defs3428" />
  <sodipodi:namedview
     pagecolor="#ffffff"
     bordercolor="#666666"
     borderopacity="1"
     objecttolerance="10"
     gridtolerance="10"
     guidetolerance="10"
     inkscape:pageopacity="0"
     inkscape:pageshadow="2"
     inkscape:window-width="1280"
     inkscape:window-height="708"
     id="namedview3426"
     showgrid="false"
     inkscape:zoom="1.5011521"
     inkscape:cx="375.24681"
     inkscape:cy="87.994111"
     inkscape:window-x="-4"
     inkscape:window-y="-4"
     inkscape:window-maximized="1"
     inkscape:current-layer="svg3424" />
  <path
     style="fill:#455c6f;fill-opacity:1"
     d="m 94,171.5 0,-4.5 -8.2813,0 -8.281307,0 L 71.5,161 65.562607,155 323.5,155 l 257.93739,0 -5.93739,6 -5.93739,6 -8.28131,0 -8.2813,0 0,4.5 0,4.5 -9.5,0 -9.5,0 0,-4.5 0,-4.5 -210.5,0 -210.5,0 0,4.5 0,4.5 -9.5,0 -9.5,0 0,-4.5 z M 26.283844,149.05389 C 3.82969,140.95666 -6.06268,114.97894 5.223213,93.747905 10.811845,83.234563 21.207329,76.007477 33.679232,73.964884 37.267259,73.377253 146.71113,72.998052 319,72.976305 l 279.5,-0.03528 28.9994,-24.588338 C 643.44907,34.829103 660.12316,20.329872 664.55292,16.132175 676.40131,4.9045098 687.41945,0.03658782 701.0399,0.01186888 c 13.36575,-0.0242567 24.96576,4.80860622 34.55269,14.39553812 6.71678,6.716774 10.61043,13.435214 12.91574,22.285891 4.20579,16.147093 -0.92455,34.544616 -12.9118,46.302057 -6.18656,6.067959 -10.03383,8.504406 -18.40704,11.657024 -3.47078,1.306792 -21.90327,10.329691 -40.9611,20.050881 -32.90916,16.78662 -34.94039,17.98469 -40.41692,23.83913 -3.99518,4.27086 -7.69298,7.05396 -12.0389,9.06092 L 617.5,150.5 l -293,0.21745 C 39.898557,150.92866 31.350484,150.88097 26.283844,149.05389 z M 581.73883,137.75 c -5.63074,-5.52486 -9.44756,-12.18029 -10.41926,-18.16816 L 570.73832,116 306.86916,116 43,116 l 0,-3.5 0,-3.5 263.87219,0 263.87219,0 0.6543,-4.09177 c 0.93872,-5.870409 4.08513,-11.482162 9.86351,-17.59194 L 586.30351,81.985831 309.90176,82.242916 33.5,82.5 28.515818,84.952572 c -18.409426,9.058746 -23.165969,32.210068 -9.69583,47.192108 4.708553,5.23704 9.707103,8.30483 15.914479,9.76727 2.137507,0.50359 122.356733,0.93058 278.060253,0.9876 L 587.08944,143 l -5.35061,-5.25 z m 38.747,1.71288 c 10.92361,-5.52685 16.83905,-14.99871 16.83905,-26.96288 0,-11.96012 -5.95135,-21.609772 -16.82488,-27.280276 -6.80464,-3.548593 -23.08228,-4.450746 -29.12,-1.613912 -6.02017,2.82859 -13.7587,11.12254 -15.70371,16.830818 C 572.62948,109.37854 572.08472,109 588,109 l 14,0 0,3.5 0,3.5 -14,0 c -13.85475,0 -13.9999,0.0233 -13.99023,2.25 0.0142,3.27726 4.23397,11.81907 7.90324,15.99815 1.74685,1.98954 5.51854,4.80834 8.38154,6.26399 4.80674,2.44391 5.94674,2.61417 14.8835,2.22287 8.14344,-0.35656 10.57075,-0.87541 15.30778,-3.27213 z m 81.48952,-41.578513 c 0.0136,-0.338597 -3.17744,-0.84474 -7.0911,-1.124762 -5.79766,-0.41482 -8.67912,-1.301829 -15.55561,-4.788529 -14.0744,-7.136378 -22.77641,-18.727178 -26.02704,-34.667164 -1.67393,-8.208404 -0.76842,-18.857543 2.20951,-25.984746 0.83333,-1.994435 1.39674,-3.721909 1.25202,-3.838831 -0.14472,-0.116922 -12.26289,9.964671 -26.92926,22.40354 L 603.16775,72.5 l 7.84481,1.144044 c 4.31465,0.629225 10.34551,2.288902 13.40192,3.688171 7.125,3.261936 14.97238,11.124093 18.39735,18.431995 2.35596,5.02695 2.68817,6.9716 2.68817,15.73579 0,5.5 -0.37556,11.473 -0.83458,13.27334 l -0.83458,3.27333 29.05993,-14.77333 C 688.87373,105.148 701.9618,98.222965 701.97535,97.884367 z m 18.30612,-9.117938 C 743.36264,77.798303 752.54632,50.63266 740.89433,27.792874 738.12776,22.369953 729.64952,13.464953 724.22821,10.287854 713.97017,4.2762379 701.09452,2.5224141 689.4601,5.5520008 668.287,11.065445 653.46683,33.541672 656.90943,54.918269 c 2.05494,12.759981 10.67105,25.821373 21.04311,31.899803 8.56576,5.019872 13.66105,6.252045 24.54746,5.936213 9.15334,-0.265553 10.65883,-0.603189 17.78147,-3.987856 z"
     id="path3434"
     inkscape:connector-curvature="0" />
</svg>
